<?xml version="1.0" encoding="UTF-8" standalone="no"?>
<svg
   xmlns:dc="http://purl.org/dc/elements/1.1/"
   xmlns:cc="http://creativecommons.org/ns#"
   xmlns:rdf="http://www.w3.org/1999/02/22-rdf-syntax-ns#"
   xmlns:svg="http://www.w3.org/2000/svg"
   xmlns="http://www.w3.org/2000/svg"
   xmlns:xlink="http://www.w3.org/1999/xlink"
   xmlns:sodipodi="http://sodipodi.sourceforge.net/DTD/sodipodi-0.dtd"
   xmlns:inkscape="http://www.inkscape.org/namespaces/inkscape"
   width="1920"
   height="1080"
   viewBox="0 0 507.99999 285.75"
   version="1.1"
   id="svg8"
   inkscape:export-filename="/home/cliciom/Projetos/Sites/darktechlc.github.io/img/bitmap.png"
   inkscape:export-xdpi="96"
   inkscape:export-ydpi="96"
   sodipodi:docname="bg.svg"
   inkscape:version="1.0 (4035a4fb49, 2020-05-01)">
  <defs
     id="defs2">
    <linearGradient
       inkscape:collect="always"
       id="linearGradient4542">
      <stop
         style="stop-color:#4f7fa2;stop-opacity:1"
         offset="0"
         id="stop4538" />
      <stop
         style="stop-color:#46b09c;stop-opacity:1"
         offset="1"
         id="stop4540" />
    </linearGradient>
    <linearGradient
       inkscape:collect="always"
       xlink:href="#linearGradient4542"
       id="linearGradient4544"
       x1="594.14136"
       y1="174.55626"
       x2="336.65732"
       y2="-56.977684"
       gradientUnits="userSpaceOnUse" />
    <linearGradient
       inkscape:collect="always"
       xlink:href="#linearGradient4542"
       id="linearGradient4560"
       gradientUnits="userSpaceOnUse"
       x1="594.14136"
       y1="174.55626"
       x2="336.65732"
       y2="-56.977684" />
    <linearGradient
       inkscape:collect="always"
       xlink:href="#linearGradient4542"
       id="linearGradient4564"
       gradientUnits="userSpaceOnUse"
       x1="594.14136"
       y1="174.55626"
       x2="336.65732"
       y2="-56.977684" />
    <linearGradient
       inkscape:collect="always"
       xlink:href="#linearGradient4542"
       id="linearGradient4568"
       gradientUnits="userSpaceOnUse"
       x1="594.14136"
       y1="174.55626"
       x2="336.65732"
       y2="-56.977684" />
    <linearGradient
       inkscape:collect="always"
       xlink:href="#linearGradient4542"
       id="linearGradient4572"
       gradientUnits="userSpaceOnUse"
       x1="594.14136"
       y1="174.55626"
       x2="336.65732"
       y2="-56.977684" />
  </defs>
  <sodipodi:namedview
     id="base"
     pagecolor="#ffffff"
     bordercolor="#666666"
     borderopacity="1.0"
     inkscape:pageopacity="0.0"
     inkscape:pageshadow="2"
     inkscape:zoom="0.175"
     inkscape:cx="582.45465"
     inkscape:cy="241.68398"
     inkscape:document-units="px"
     inkscape:current-layer="layer1"
     inkscape:document-rotation="0"
     showgrid="false"
     units="px"
     inkscape:showpageshadow="false"
     inkscape:window-width="1322"
     inkscape:window-height="742"
     inkscape:window-x="44"
     inkscape:window-y="26"
     inkscape:window-maximized="1">
    <inkscape:grid
       type="xygrid"
       id="grid3351" />
  </sodipodi:namedview>
  <metadata
     id="metadata5">
    <rdf:RDF>
      <cc:Work
         rdf:about="">
        <dc:format>image/svg+xml</dc:format>
        <dc:type
           rdf:resource="http://purl.org/dc/dcmitype/StillImage" />
        <dc:title />
      </cc:Work>
    </rdf:RDF>
  </metadata>
  <g
     inkscape:label="Layer 1"
     inkscape:groupmode="layer"
     id="layer1">
    <path
       id="rect2118"
       style="opacity:1;fill:#08090a;fill-opacity:1;stroke:none;stroke-width:4.04995;stroke-linecap:square;stroke-linejoin:bevel;paint-order:markers stroke fill"
       d="M -5.75e-6,-1.40625e-6 H 508 V 285.75 H 381 254.1194 126.96192 -5.75e-6 Z"
       sodipodi:nodetypes="cccccccc"
       inkscape:export-xdpi="96"
       inkscape:export-ydpi="96" />
    <path
       transform="matrix(0,0.11270595,-0.11270595,0,345.65034,134.43549)"
       inkscape:export-ydpi="96"
       inkscape:export-xdpi="96"
       d="m 530.17079,172.73536 c -9.03771,5.21793 -121.41045,5.21792 -130.44816,0 -9.03772,-5.21793 -65.22408,-102.535578 -65.22408,-112.971431 0,-10.435854 56.18637,-107.753496 65.22409,-112.971423 9.03771,-5.217926 121.41045,-5.21792 130.44816,7e-6 9.03772,5.217927 65.22408,102.535575 65.22408,112.971428 0,10.435854 -56.18637,107.753499 -65.22409,112.971419 z"
       inkscape:randomized="0"
       inkscape:rounded="0.08"
       inkscape:flatsided="true"
       sodipodi:arg2="1.5707963"
       sodipodi:arg1="1.0471976"
       sodipodi:r2="112.97143"
       sodipodi:r1="130.44817"
       sodipodi:cy="59.763935"
       sodipodi:cx="464.94672"
       sodipodi:sides="6"
       id="path4558"
       style="opacity:1;fill:url(#linearGradient4560);fill-opacity:1;stroke:none;stroke-width:3.60945;stroke-linecap:square;stroke-linejoin:bevel;stroke-miterlimit:4;stroke-dasharray:none;stroke-opacity:1;paint-order:markers stroke fill"
       sodipodi:type="star" />
    <path
       sodipodi:type="star"
       style="opacity:1;fill:url(#linearGradient4544);fill-opacity:1;stroke:none;stroke-width:3.60945;stroke-linecap:square;stroke-linejoin:bevel;stroke-miterlimit:4;stroke-dasharray:none;stroke-opacity:1;paint-order:markers stroke fill"
       id="path4536"
       sodipodi:sides="6"
       sodipodi:cx="464.94672"
       sodipodi:cy="59.763935"
       sodipodi:r1="130.44817"
       sodipodi:r2="112.97143"
       sodipodi:arg1="1.0471976"
       sodipodi:arg2="1.5707963"
       inkscape:flatsided="true"
       inkscape:rounded="0.08"
       inkscape:randomized="0"
       d="m 530.17079,172.73536 c -9.03771,5.21793 -121.41045,5.21792 -130.44816,0 -9.03772,-5.21793 -65.22408,-102.535578 -65.22408,-112.971431 0,-10.435854 56.18637,-107.753496 65.22409,-112.971423 9.03771,-5.217926 121.41045,-5.21792 130.44816,7e-6 9.03772,5.217927 65.22408,102.535575 65.22408,112.971428 0,10.435854 -56.18637,107.753499 -65.22409,112.971419 z"
       inkscape:export-xdpi="63.333092"
       inkscape:export-ydpi="63.333092"
       transform="matrix(0,0.8783845,-0.8783845,0,503.24593,-323.92174)" />
    <path
       sodipodi:type="star"
       style="opacity:1;fill:url(#linearGradient4564);fill-opacity:1;stroke:none;stroke-width:3.60945;stroke-linecap:square;stroke-linejoin:bevel;stroke-miterlimit:4;stroke-dasharray:none;stroke-opacity:1;paint-order:markers stroke fill"
       id="path4562"
       sodipodi:sides="6"
       sodipodi:cx="464.94672"
       sodipodi:cy="59.763935"
       sodipodi:r1="130.44817"
       sodipodi:r2="112.97143"
       sodipodi:arg1="1.0471976"
       sodipodi:arg2="1.5707963"
       inkscape:flatsided="true"
       inkscape:rounded="0.08"
       inkscape:randomized="0"
       d="m 530.17079,172.73536 c -9.03771,5.21793 -121.41045,5.21792 -130.44816,0 -9.03772,-5.21793 -65.22408,-102.535578 -65.22408,-112.971431 0,-10.435854 56.18637,-107.753496 65.22409,-112.971423 9.03771,-5.217926 121.41045,-5.21792 130.44816,7e-6 9.03772,5.217927 65.22408,102.535575 65.22408,112.971428 0,10.435854 -56.18637,107.753499 -65.22409,112.971419 z"
       inkscape:export-xdpi="96"
       inkscape:export-ydpi="96"
       transform="matrix(0,0.16068725,-0.16068725,0,309.72904,155.29435)" />
    <path
       sodipodi:type="star"
       style="opacity:1;fill:url(#linearGradient4568);fill-opacity:1;stroke:none;stroke-width:3.60945;stroke-linecap:square;stroke-linejoin:bevel;stroke-miterlimit:4;stroke-dasharray:none;stroke-opacity:1;paint-order:markers stroke fill"
       id="path4566"
       sodipodi:sides="6"
       sodipodi:cx="464.94672"
       sodipodi:cy="59.763935"
       sodipodi:r1="130.44817"
       sodipodi:r2="112.97143"
       sodipodi:arg1="1.0471976"
       sodipodi:arg2="1.5707963"
       inkscape:flatsided="true"
       inkscape:rounded="0.08"
       inkscape:randomized="0"
       d="m 530.17079,172.73536 c -9.03771,5.21793 -121.41045,5.21792 -130.44816,0 -9.03772,-5.21793 -65.22408,-102.535578 -65.22408,-112.971431 0,-10.435854 56.18637,-107.753496 65.22409,-112.971423 9.03771,-5.217926 121.41045,-5.21792 130.44816,7e-6 9.03772,5.217927 65.22408,102.535575 65.22408,112.971428 0,10.435854 -56.18637,107.753499 -65.22409,112.971419 z"
       inkscape:export-xdpi="96"
       inkscape:export-ydpi="96"
       transform="matrix(0,0.22642771,-0.22642771,0,416.00648,129.80809)" />
    <path
       transform="matrix(0,0.26230708,-0.26230708,0,316.12004,-106.24084)"
       inkscape:export-ydpi="96"
       inkscape:export-xdpi="96"
       d="m 530.17079,172.73536 c -9.03771,5.21793 -121.41045,5.21792 -130.44816,0 -9.03772,-5.21793 -65.22408,-102.535578 -65.22408,-112.971431 0,-10.435854 56.18637,-107.753496 65.22409,-112.971423 9.03771,-5.217926 121.41045,-5.21792 130.44816,7e-6 9.03772,5.217927 65.22408,102.535575 65.22408,112.971428 0,10.435854 -56.18637,107.753499 -65.22409,112.971419 z"
       inkscape:randomized="0"
       inkscape:rounded="0.08"
       inkscape:flatsided="true"
       sodipodi:arg2="1.5707963"
       sodipodi:arg1="1.0471976"
       sodipodi:r2="112.97143"
       sodipodi:r1="130.44817"
       sodipodi:cy="59.763935"
       sodipodi:cx="464.94672"
       sodipodi:sides="6"
       id="path4570"
       style="opacity:1;fill:url(#linearGradient4572);fill-opacity:1;stroke:none;stroke-width:3.60945;stroke-linecap:square;stroke-linejoin:bevel;stroke-miterlimit:4;stroke-dasharray:none;stroke-opacity:1;paint-order:markers stroke fill"
       sodipodi:type="star" />
  </g>
</svg>
