<?xml version="1.0" encoding="UTF-8" standalone="no"?>
<svg
   xmlns:dc="http://purl.org/dc/elements/1.1/"
   xmlns:cc="http://creativecommons.org/ns#"
   xmlns:rdf="http://www.w3.org/1999/02/22-rdf-syntax-ns#"
   xmlns:svg="http://www.w3.org/2000/svg"
   xmlns="http://www.w3.org/2000/svg"
   xmlns:xlink="http://www.w3.org/1999/xlink"
   xmlns:sodipodi="http://sodipodi.sourceforge.net/DTD/sodipodi-0.dtd"
   xmlns:inkscape="http://www.inkscape.org/namespaces/inkscape"
   sodipodi:docname="logo.svg"
   inkscape:version="1.0 (4035a4fb49, 2020-05-01)"
   inkscape:export-ydpi="96"
   inkscape:export-xdpi="96"
   inkscape:export-filename="/home/cliciom/Projetos/Sites/darktechlc.github.io/img/logo.png"
   id="svg4598"
   version="1.1"
   viewBox="0 0 26.458333 26.458334"
   height="100"
   width="100">
  <defs
     id="defs4592">
    <linearGradient
       id="linearGradient5597"
       inkscape:collect="always">
      <stop
         id="stop5593"
         offset="0"
         style="stop-color:#4f7fa2;stop-opacity:1" />
      <stop
         id="stop5595"
         offset="1"
         style="stop-color:#46b09c;stop-opacity:1" />
    </linearGradient>
    <linearGradient
       gradientUnits="userSpaceOnUse"
       y2="0.76564211"
       x2="65.563553"
       y1="99.039581"
       x1="8.0986204"
       id="linearGradient5599"
       xlink:href="#linearGradient5597"
       inkscape:collect="always" />
  </defs>
  <sodipodi:namedview
     inkscape:window-maximized="1"
     inkscape:window-y="26"
     inkscape:window-x="44"
     inkscape:window-height="742"
     inkscape:window-width="1322"
     inkscape:snap-global="false"
     inkscape:showpageshadow="false"
     units="px"
     showgrid="false"
     inkscape:document-rotation="0"
     inkscape:current-layer="layer1"
     inkscape:document-units="px"
     inkscape:cy="63.968554"
     inkscape:cx="5.8182666"
     inkscape:zoom="2.8284271"
     inkscape:pageshadow="2"
     inkscape:pageopacity="0.0"
     borderopacity="1.0"
     bordercolor="#666666"
     pagecolor="#ffffff"
     id="base">
    <inkscape:grid
       id="grid5161"
       type="xygrid" />
  </sodipodi:namedview>
  <metadata
     id="metadata4595">
    <rdf:RDF>
      <cc:Work
         rdf:about="">
        <dc:format>image/svg+xml</dc:format>
        <dc:type
           rdf:resource="http://purl.org/dc/dcmitype/StillImage" />
        <dc:title></dc:title>
      </cc:Work>
    </rdf:RDF>
  </metadata>
  <g
     id="layer1"
     inkscape:groupmode="layer"
     inkscape:label="Layer 1">
    <path
       transform="scale(0.26458333)"
       d="M 10.701172 0 L 10.701172 0.001953125 A 4.7572369 4.7572369 0 0 0 10.398438 0.01953125 A 4.7572369 4.7572369 0 0 0 10.154297 0.046875 A 4.7572369 4.7572369 0 0 0 10.058594 0.0625 A 4.7572369 4.7572369 0 0 0 9.9824219 0.07421875 A 4.7572369 4.7572369 0 0 0 9.953125 0.080078125 A 4.7572369 4.7572369 0 0 0 9.8027344 0.109375 A 4.7572369 4.7572369 0 0 1 9.8007812 0.109375 A 4.7572369 4.7572369 0 0 0 9.6621094 0.14257812 A 4.7572369 4.7572369 0 0 0 9.6054688 0.15820312 A 4.7572369 4.7572369 0 0 0 9.578125 0.1640625 A 4.7572369 4.7572369 0 0 0 9.25 0.265625 A 4.7572369 4.7572369 0 0 0 9.2304688 0.2734375 A 4.7572369 4.7572369 0 0 0 8.921875 0.39453125 A 4.7572369 4.7572369 0 0 0 8.7773438 0.4609375 A 4.7572369 4.7572369 0 0 0 8.7636719 0.46679688 A 4.7572369 4.7572369 0 0 1 8.7617188 0.46679688 A 4.7572369 4.7572369 0 0 0 8.65625 0.51953125 A 4.7572369 4.7572369 0 0 0 8.5820312 0.55859375 A 4.7572369 4.7572369 0 0 0 8.5527344 0.57421875 A 4.7572369 4.7572369 0 0 0 8.4394531 0.63671875 A 4.7572369 4.7572369 0 0 0 8.4140625 0.65234375 A 4.7572369 4.7572369 0 0 0 8.2753906 0.73632812 A 4.7572369 4.7572369 0 0 0 8.2304688 0.76757812 A 4.7572369 4.7572369 0 0 0 8.1308594 0.83203125 A 4.7572369 4.7572369 0 0 0 8.0664062 0.87695312 A 4.7572369 4.7572369 0 0 0 7.984375 0.9375 A 4.7572369 4.7572369 0 0 0 7.9238281 0.98242188 A 4.7572369 4.7572369 0 0 0 7.8378906 1.0507812 A 4.7572369 4.7572369 0 0 0 7.7753906 1.1015625 A 4.7572369 4.7572369 0 0 0 7.7011719 1.1640625 A 4.7572369 4.7572369 0 0 0 7.6308594 1.2265625 A 4.7572369 4.7572369 0 0 0 7.5703125 1.2832031 A 4.7572369 4.7572369 0 0 0 7.4882812 1.359375 A 4.7572369 4.7572369 0 0 0 7.4609375 1.3867188 A 4.7572369 4.7572369 0 0 0 7.2441406 1.6191406 A 4.7572369 4.7572369 0 0 0 7.2109375 1.65625 A 4.7572369 4.7572369 0 0 0 7.1621094 1.7148438 A 4.7572369 4.7572369 0 0 0 7.0605469 1.8398438 A 4.7572369 4.7572369 0 0 0 7.0195312 1.8945312 A 4.7572369 4.7572369 0 0 0 6.9609375 1.9746094 A 4.7572369 4.7572369 0 0 0 6.8789062 2.0898438 A 4.7572369 4.7572369 0 0 0 6.8769531 2.0957031 A 4.7572369 4.7572369 0 0 0 6.8027344 2.2070312 A 4.7572369 4.7572369 0 0 0 6.6640625 2.4414062 A 4.7572369 4.7572369 0 0 0 6.6152344 2.53125 A 4.7572369 4.7572369 0 0 0 6.5859375 2.5839844 A 4.7572369 4.7572369 0 0 0 6.4589844 2.8535156 A 4.7572369 4.7572369 0 0 0 6.4179688 2.9492188 A 4.7572369 4.7572369 0 0 0 6.3984375 2.9980469 A 4.7572369 4.7572369 0 0 0 6.3535156 3.1152344 A 4.7572369 4.7572369 0 0 0 6.3457031 3.1386719 A 4.7572369 4.7572369 0 0 0 6.3105469 3.2402344 A 4.7572369 4.7572369 0 0 0 6.2714844 3.3632812 A 4.7572369 4.7572369 0 0 0 6.2070312 3.59375 A 4.7572369 4.7572369 0 0 0 6.1757812 3.7207031 A 4.7572369 4.7572369 0 0 0 6.1289062 3.9589844 A 4.7572369 4.7572369 0 0 0 6.1035156 4.1289062 A 4.7572369 4.7572369 0 0 0 6.1035156 4.1386719 A 4.7572369 4.7572369 0 0 0 6.0898438 4.2441406 A 4.7572369 4.7572369 0 0 0 6.0761719 4.3828125 A 4.7572369 4.7572369 0 0 0 6.0742188 4.4082031 A 4.7572369 4.7572369 0 0 0 6.0664062 4.5273438 A 4.7572369 4.7572369 0 0 0 6.0605469 4.7578125 A 4.7572369 4.7572369 0 0 0 6.0683594 5.0097656 A 4.7572369 4.7572369 0 0 0 6.0722656 5.0664062 A 4.7572369 4.7572369 0 0 0 6.0742188 5.0976562 A 4.7572369 4.7572369 0 0 0 6.1074219 5.4179688 A 4.7572369 4.7572369 0 0 0 6.1191406 5.4882812 A 4.7572369 4.7572369 0 0 0 6.140625 5.6191406 A 4.7572369 4.7572369 0 0 0 6.140625 5.6230469 A 4.7572369 4.7572369 0 0 0 6.171875 5.7734375 A 4.7572369 4.7572369 0 0 0 6.1972656 5.8847656 A 4.7572369 4.7572369 0 0 0 6.2167969 5.96875 A 4.7572369 4.7572369 0 0 0 6.2207031 5.9804688 A 4.7572369 4.7572369 0 0 0 6.2636719 6.1289062 A 4.7572369 4.7572369 0 0 0 6.2714844 6.15625 A 4.7572369 4.7572369 0 0 0 6.3203125 6.3027344 A 4.7572369 4.7572369 0 0 0 6.4375 6.609375 A 4.7572369 4.7572369 0 0 0 6.4550781 6.6542969 A 4.7572369 4.7572369 0 0 0 6.4960938 6.7421875 A 4.7572369 4.7572369 0 0 0 6.5273438 6.8105469 A 4.7572369 4.7572369 0 0 0 6.5410156 6.8378906 A 4.7572369 4.7572369 0 0 0 6.6425781 7.0332031 L 6.640625 7.0351562 L 6.6972656 7.1347656 A 4.7572369 4.7572369 0 0 1 6.6992188 7.1367188 A 4.7572369 4.7572369 0 0 0 6.7304688 7.1914062 L 31.445312 50 L 6.7304688 92.808594 A 4.7572369 4.7572369 0 0 0 6.6972656 92.865234 A 4.7572369 4.7572369 0 0 0 6.671875 92.912109 L 6.640625 92.964844 L 6.6425781 92.966797 A 4.7572369 4.7572369 0 0 0 6.625 92.998047 A 4.7572369 4.7572369 0 0 0 6.4960938 93.257812 A 4.7572369 4.7572369 0 0 0 6.4550781 93.345703 A 4.7572369 4.7572369 0 0 0 6.4375 93.390625 A 4.7572369 4.7572369 0 0 0 6.3925781 93.498047 A 4.7572369 4.7572369 0 0 0 6.3828125 93.525391 A 4.7572369 4.7572369 0 0 0 6.2714844 93.84375 A 4.7572369 4.7572369 0 0 0 6.2636719 93.871094 A 4.7572369 4.7572369 0 0 0 6.2167969 94.03125 A 4.7572369 4.7572369 0 0 0 6.1972656 94.115234 A 4.7572369 4.7572369 0 0 0 6.1777344 94.197266 A 4.7572369 4.7572369 0 0 0 6.171875 94.226562 A 4.7572369 4.7572369 0 0 0 6.140625 94.380859 A 4.7572369 4.7572369 0 0 0 6.1191406 94.511719 A 4.7572369 4.7572369 0 0 0 6.1074219 94.582031 A 4.7572369 4.7572369 0 0 0 6.1074219 94.587891 A 4.7572369 4.7572369 0 0 0 6.0878906 94.740234 A 4.7572369 4.7572369 0 0 0 6.0742188 94.902344 A 4.7572369 4.7572369 0 0 0 6.0722656 94.933594 A 4.7572369 4.7572369 0 0 0 6.0683594 94.990234 A 4.7572369 4.7572369 0 0 0 6.0605469 95.242188 A 4.7572369 4.7572369 0 0 0 6.0664062 95.472656 A 4.7572369 4.7572369 0 0 0 6.0742188 95.591797 A 4.7572369 4.7572369 0 0 0 6.0761719 95.617188 A 4.7572369 4.7572369 0 0 0 6.0898438 95.755859 A 4.7572369 4.7572369 0 0 0 6.1035156 95.861328 A 4.7572369 4.7572369 0 0 0 6.1035156 95.871094 A 4.7572369 4.7572369 0 0 0 6.1289062 96.041016 A 4.7572369 4.7572369 0 0 0 6.1308594 96.048828 A 4.7572369 4.7572369 0 0 0 6.1503906 96.154297 A 4.7572369 4.7572369 0 0 0 6.1757812 96.279297 A 4.7572369 4.7572369 0 0 0 6.2070312 96.40625 A 4.7572369 4.7572369 0 0 0 6.2070312 96.408203 A 4.7572369 4.7572369 0 0 0 6.234375 96.511719 A 4.7572369 4.7572369 0 0 0 6.2714844 96.636719 A 4.7572369 4.7572369 0 0 0 6.3535156 96.884766 A 4.7572369 4.7572369 0 0 0 6.3984375 97.001953 A 4.7572369 4.7572369 0 0 0 6.4179688 97.050781 A 4.7572369 4.7572369 0 0 0 6.4589844 97.146484 A 4.7572369 4.7572369 0 0 0 6.5859375 97.416016 A 4.7572369 4.7572369 0 0 0 6.6152344 97.46875 A 4.7572369 4.7572369 0 0 0 6.6640625 97.558594 A 4.7572369 4.7572369 0 0 0 6.6835938 97.595703 A 4.7572369 4.7572369 0 0 0 6.7382812 97.6875 A 4.7572369 4.7572369 0 0 0 6.8027344 97.792969 A 4.7572369 4.7572369 0 0 0 6.8769531 97.904297 A 4.7572369 4.7572369 0 0 0 6.8769531 97.90625 A 4.7572369 4.7572369 0 0 0 6.8789062 97.910156 A 4.7572369 4.7572369 0 0 0 6.9609375 98.025391 A 4.7572369 4.7572369 0 0 0 7.0195312 98.105469 A 4.7572369 4.7572369 0 0 0 7.0605469 98.160156 A 4.7572369 4.7572369 0 0 0 7.2441406 98.380859 A 4.7572369 4.7572369 0 0 0 7.28125 98.423828 A 4.7572369 4.7572369 0 0 0 7.3339844 98.480469 A 4.7572369 4.7572369 0 0 0 7.4472656 98.599609 A 4.7572369 4.7572369 0 0 0 7.4882812 98.640625 A 4.7572369 4.7572369 0 0 0 7.5703125 98.716797 A 4.7572369 4.7572369 0 0 0 7.6308594 98.773438 A 4.7572369 4.7572369 0 0 0 7.7011719 98.835938 A 4.7572369 4.7572369 0 0 0 7.7753906 98.898438 A 4.7572369 4.7572369 0 0 0 7.8378906 98.949219 A 4.7572369 4.7572369 0 0 0 7.9238281 99.017578 A 4.7572369 4.7572369 0 0 0 7.984375 99.0625 A 4.7572369 4.7572369 0 0 0 8.0664062 99.123047 A 4.7572369 4.7572369 0 0 0 8.1308594 99.167969 A 4.7572369 4.7572369 0 0 0 8.2304688 99.232422 A 4.7572369 4.7572369 0 0 0 8.2753906 99.263672 A 4.7572369 4.7572369 0 0 0 8.3222656 99.292969 A 4.7572369 4.7572369 0 0 0 8.4140625 99.347656 A 4.7572369 4.7572369 0 0 0 8.4394531 99.363281 A 4.7572369 4.7572369 0 0 0 8.5527344 99.425781 A 4.7572369 4.7572369 0 0 0 8.5820312 99.441406 A 4.7572369 4.7572369 0 0 0 8.65625 99.480469 A 4.7572369 4.7572369 0 0 0 8.7636719 99.533203 A 4.7572369 4.7572369 0 0 0 8.7773438 99.539062 A 4.7572369 4.7572369 0 0 0 8.921875 99.605469 A 4.7572369 4.7572369 0 0 0 8.9316406 99.609375 A 4.7572369 4.7572369 0 0 0 9.0742188 99.667969 A 4.7572369 4.7572369 0 0 0 9.2304688 99.726562 A 4.7572369 4.7572369 0 0 0 9.25 99.734375 A 4.7572369 4.7572369 0 0 0 9.2734375 99.742188 A 4.7572369 4.7572369 0 0 0 9.4199219 99.789062 A 4.7572369 4.7572369 0 0 0 9.578125 99.835938 A 4.7572369 4.7572369 0 0 0 9.6054688 99.841797 A 4.7572369 4.7572369 0 0 0 9.6621094 99.857422 A 4.7572369 4.7572369 0 0 0 9.8027344 99.890625 A 4.7572369 4.7572369 0 0 0 9.953125 99.919922 A 4.7572369 4.7572369 0 0 0 10.058594 99.9375 A 4.7572369 4.7572369 0 0 0 10.154297 99.953125 A 4.7572369 4.7572369 0 0 0 10.164062 99.955078 A 4.7572369 4.7572369 0 0 0 10.316406 99.972656 A 4.7572369 4.7572369 0 0 0 10.398438 99.980469 A 4.7572369 4.7572369 0 0 0 10.701172 99.998047 L 10.701172 100 L 10.818359 100 A 4.7572369 4.7572369 0 0 0 10.894531 100 L 63.03125 100 A 4.7572369 4.7572369 0 0 0 63.060547 100 A 4.7572369 4.7572369 0 0 0 63.244141 99.996094 A 4.7572369 4.7572369 0 0 0 63.320312 99.992188 A 4.7572369 4.7572369 0 0 0 63.328125 99.992188 A 4.7572369 4.7572369 0 0 0 63.685547 99.958984 A 4.7572369 4.7572369 0 0 0 63.791016 99.943359 A 4.7572369 4.7572369 0 0 0 63.802734 99.941406 A 4.7572369 4.7572369 0 0 0 63.972656 99.912109 A 4.7572369 4.7572369 0 0 0 64.046875 99.896484 A 4.7572369 4.7572369 0 0 0 64.150391 99.873047 A 4.7572369 4.7572369 0 0 0 64.158203 99.871094 A 4.7572369 4.7572369 0 0 0 64.328125 99.828125 A 4.7572369 4.7572369 0 0 0 64.402344 99.806641 A 4.7572369 4.7572369 0 0 0 64.503906 99.775391 A 4.7572369 4.7572369 0 0 0 64.517578 99.771484 A 4.7572369 4.7572369 0 0 0 64.677734 99.716797 A 4.7572369 4.7572369 0 0 0 64.75 99.689453 A 4.7572369 4.7572369 0 0 0 64.849609 99.650391 A 4.7572369 4.7572369 0 0 0 64.919922 99.621094 A 4.7572369 4.7572369 0 0 0 65.017578 99.578125 A 4.7572369 4.7572369 0 0 0 65.023438 99.574219 A 4.7572369 4.7572369 0 0 0 65.183594 99.5 A 4.7572369 4.7572369 0 0 0 65.251953 99.464844 A 4.7572369 4.7572369 0 0 0 65.345703 99.414062 A 4.7572369 4.7572369 0 0 0 65.347656 99.412109 A 4.7572369 4.7572369 0 0 0 65.414062 99.376953 A 4.7572369 4.7572369 0 0 0 65.445312 99.357422 A 4.7572369 4.7572369 0 0 0 65.570312 99.283203 A 4.7572369 4.7572369 0 0 0 65.660156 99.226562 A 4.7572369 4.7572369 0 0 0 65.724609 99.183594 A 4.7572369 4.7572369 0 0 0 65.8125 99.123047 A 4.7572369 4.7572369 0 0 0 65.835938 99.105469 A 4.7572369 4.7572369 0 0 0 65.958984 99.013672 A 4.7572369 4.7572369 0 0 0 66.019531 98.966797 A 4.7572369 4.7572369 0 0 0 66.035156 98.955078 A 4.7572369 4.7572369 0 0 0 66.162109 98.849609 A 4.7572369 4.7572369 0 0 0 66.242188 98.779297 A 4.7572369 4.7572369 0 0 0 66.253906 98.769531 A 4.7572369 4.7572369 0 0 0 66.375 98.654297 A 4.7572369 4.7572369 0 0 0 66.429688 98.599609 A 4.7572369 4.7572369 0 0 0 66.503906 98.523438 A 4.7572369 4.7572369 0 0 0 66.511719 98.515625 A 4.7572369 4.7572369 0 0 0 66.628906 98.388672 A 4.7572369 4.7572369 0 0 0 66.679688 98.330078 A 4.7572369 4.7572369 0 0 0 66.689453 98.318359 A 4.7572369 4.7572369 0 0 0 67.011719 97.892578 A 4.7572369 4.7572369 0 0 0 67.070312 97.802734 A 4.7572369 4.7572369 0 0 0 67.111328 97.738281 A 4.7572369 4.7572369 0 0 0 67.140625 97.689453 L 67.142578 97.685547 A 4.7572369 4.7572369 0 0 0 67.166016 97.646484 A 4.7572369 4.7572369 0 0 0 67.179688 97.621094 L 93.287109 52.404297 A 4.7572369 4.7572369 0 0 0 93.316406 52.353516 A 4.7572369 4.7572369 0 0 0 93.353516 52.285156 A 4.7572369 4.7572369 0 0 0 93.355469 52.279297 A 4.7572369 4.7572369 0 0 0 93.390625 52.21875 A 4.7572369 4.7572369 0 0 0 93.439453 52.123047 A 4.7572369 4.7572369 0 0 0 93.472656 52.054688 A 4.7572369 4.7572369 0 0 0 93.484375 52.027344 A 4.7572369 4.7572369 0 0 0 93.517578 51.957031 A 4.7572369 4.7572369 0 0 0 93.548828 51.886719 A 4.7572369 4.7572369 0 0 0 93.589844 51.789062 A 4.7572369 4.7572369 0 0 0 93.617188 51.716797 A 4.7572369 4.7572369 0 0 0 93.654297 51.617188 A 4.7572369 4.7572369 0 0 0 93.679688 51.544922 A 4.7572369 4.7572369 0 0 0 93.695312 51.501953 A 4.7572369 4.7572369 0 0 0 93.736328 51.371094 A 4.7572369 4.7572369 0 0 0 93.765625 51.269531 A 4.7572369 4.7572369 0 0 0 93.765625 51.267578 A 4.7572369 4.7572369 0 0 0 93.792969 51.166016 A 4.7572369 4.7572369 0 0 0 93.806641 51.111328 A 4.7572369 4.7572369 0 0 0 93.8125 51.089844 A 4.7572369 4.7572369 0 0 0 93.828125 51.015625 A 4.7572369 4.7572369 0 0 0 93.849609 50.912109 A 4.7572369 4.7572369 0 0 0 93.851562 50.90625 A 4.7572369 4.7572369 0 0 0 93.869141 50.806641 A 4.7572369 4.7572369 0 0 0 93.871094 50.798828 A 4.7572369 4.7572369 0 0 0 93.892578 50.654297 A 4.7572369 4.7572369 0 0 0 93.892578 50.652344 A 4.7572369 4.7572369 0 0 0 93.896484 50.630859 A 4.7572369 4.7572369 0 0 0 93.917969 50.443359 A 4.7572369 4.7572369 0 0 0 93.923828 50.367188 A 4.7572369 4.7572369 0 0 0 93.929688 50.289062 A 4.7572369 4.7572369 0 0 0 93.931641 50.230469 A 4.7572369 4.7572369 0 0 0 93.9375 50.107422 A 4.7572369 4.7572369 0 0 0 93.9375 50.076172 A 4.7572369 4.7572369 0 0 0 93.939453 50 A 4.7572369 4.7572369 0 0 0 93.9375 49.923828 A 4.7572369 4.7572369 0 0 0 93.9375 49.892578 A 4.7572369 4.7572369 0 0 0 93.933594 49.802734 A 4.7572369 4.7572369 0 0 0 93.933594 49.771484 A 4.7572369 4.7572369 0 0 0 93.931641 49.740234 A 4.7572369 4.7572369 0 0 0 93.929688 49.716797 A 4.7572369 4.7572369 0 0 0 93.929688 49.710938 A 4.7572369 4.7572369 0 0 0 93.927734 49.679688 A 4.7572369 4.7572369 0 0 0 93.917969 49.556641 A 4.7572369 4.7572369 0 0 0 93.912109 49.498047 A 4.7572369 4.7572369 0 0 0 93.898438 49.386719 A 4.7572369 4.7572369 0 0 0 93.896484 49.375 A 4.7572369 4.7572369 0 0 0 93.888672 49.316406 A 4.7572369 4.7572369 0 0 0 93.869141 49.193359 A 4.7572369 4.7572369 0 0 0 93.859375 49.134766 A 4.7572369 4.7572369 0 0 0 93.851562 49.09375 A 4.7572369 4.7572369 0 0 0 93.828125 48.984375 A 4.7572369 4.7572369 0 0 0 93.822266 48.955078 A 4.7572369 4.7572369 0 0 0 93.806641 48.888672 A 4.7572369 4.7572369 0 0 0 93.792969 48.833984 A 4.7572369 4.7572369 0 0 0 93.787109 48.806641 A 4.7572369 4.7572369 0 0 0 93.779297 48.777344 A 4.7572369 4.7572369 0 0 0 93.765625 48.730469 A 4.7572369 4.7572369 0 0 0 93.763672 48.722656 A 4.7572369 4.7572369 0 0 0 93.746094 48.658203 A 4.7572369 4.7572369 0 0 0 93.736328 48.628906 A 4.7572369 4.7572369 0 0 0 93.728516 48.601562 A 4.7572369 4.7572369 0 0 0 93.689453 48.482422 A 4.7572369 4.7572369 0 0 0 93.669922 48.425781 A 4.7572369 4.7572369 0 0 0 93.628906 48.310547 A 4.7572369 4.7572369 0 0 0 93.617188 48.283203 A 4.7572369 4.7572369 0 0 0 93.560547 48.140625 A 4.7572369 4.7572369 0 0 0 93.537109 48.085938 A 4.7572369 4.7572369 0 0 0 93.484375 47.972656 A 4.7572369 4.7572369 0 0 0 93.404297 47.808594 A 4.7572369 4.7572369 0 0 0 93.375 47.755859 A 4.7572369 4.7572369 0 0 0 93.359375 47.728516 A 4.7572369 4.7572369 0 0 0 93.355469 47.720703 A 4.7572369 4.7572369 0 0 0 93.349609 47.710938 A 4.7572369 4.7572369 0 0 0 93.316406 47.646484 A 4.7572369 4.7572369 0 0 0 93.300781 47.621094 A 4.7572369 4.7572369 0 0 0 93.296875 47.615234 A 4.7572369 4.7572369 0 0 0 93.287109 47.595703 L 67.179688 2.3789062 A 4.7572369 4.7572369 0 0 1 67.179688 2.3769531 L 67.166016 2.3535156 A 4.7572369 4.7572369 0 0 0 67.111328 2.2617188 A 4.7572369 4.7572369 0 0 0 67.070312 2.1972656 A 4.7572369 4.7572369 0 0 0 67.011719 2.1074219 A 4.7572369 4.7572369 0 0 0 67.001953 2.0957031 A 4.7572369 4.7572369 0 0 0 66.679688 1.6699219 A 4.7572369 4.7572369 0 0 0 66.628906 1.6113281 A 4.7572369 4.7572369 0 0 0 66.601562 1.5820312 A 4.7572369 4.7572369 0 0 0 66.503906 1.4765625 A 4.7572369 4.7572369 0 0 0 66.429688 1.4003906 A 4.7572369 4.7572369 0 0 0 66.375 1.3457031 A 4.7572369 4.7572369 0 0 0 66.355469 1.328125 A 4.7572369 4.7572369 0 0 0 66.242188 1.2207031 A 4.7572369 4.7572369 0 0 0 66.162109 1.1503906 A 4.7572369 4.7572369 0 0 0 66.154297 1.1445312 A 4.7572369 4.7572369 0 0 0 66.019531 1.0332031 A 4.7572369 4.7572369 0 0 0 65.958984 0.98632812 A 4.7572369 4.7572369 0 0 0 65.949219 0.97851562 A 4.7572369 4.7572369 0 0 0 65.8125 0.87695312 A 4.7572369 4.7572369 0 0 0 65.724609 0.81640625 A 4.7572369 4.7572369 0 0 0 65.660156 0.7734375 A 4.7572369 4.7572369 0 0 0 65.414062 0.62304688 A 4.7572369 4.7572369 0 0 0 65.345703 0.5859375 A 4.7572369 4.7572369 0 0 0 65.251953 0.53515625 A 4.7572369 4.7572369 0 0 0 65.183594 0.5 A 4.7572369 4.7572369 0 0 0 65.150391 0.484375 A 4.7572369 4.7572369 0 0 0 65.017578 0.421875 A 4.7572369 4.7572369 0 0 0 64.919922 0.37890625 A 4.7572369 4.7572369 0 0 0 64.849609 0.34960938 A 4.7572369 4.7572369 0 0 0 64.75 0.31054688 A 4.7572369 4.7572369 0 0 0 64.677734 0.28320312 A 4.7572369 4.7572369 0 0 0 64.636719 0.26953125 A 4.7572369 4.7572369 0 0 0 64.503906 0.22460938 A 4.7572369 4.7572369 0 0 0 64.402344 0.19335938 A 4.7572369 4.7572369 0 0 0 64.328125 0.171875 A 4.7572369 4.7572369 0 0 0 64.292969 0.1640625 A 4.7572369 4.7572369 0 0 0 64.150391 0.12695312 A 4.7572369 4.7572369 0 0 0 64.046875 0.10351562 A 4.7572369 4.7572369 0 0 0 63.972656 0.087890625 A 4.7572369 4.7572369 0 0 0 63.925781 0.080078125 A 4.7572369 4.7572369 0 0 0 63.791016 0.056640625 A 4.7572369 4.7572369 0 0 0 63.685547 0.041015625 A 4.7572369 4.7572369 0 0 0 63.658203 0.037109375 A 4.7572369 4.7572369 0 0 0 63.320312 0.0078125 A 4.7572369 4.7572369 0 0 0 63.244141 0.00390625 A 4.7572369 4.7572369 0 0 0 63.212891 0.00390625 A 4.7572369 4.7572369 0 0 0 63.085938 0 A 4.7572369 4.7572369 0 0 0 63.060547 0 A 4.7572369 4.7572369 0 0 0 63.03125 0 L 10.701172 0 z M 19.058594 9.5136719 L 60.314453 9.5136719 L 80.941406 45.242188 L 39.685547 45.242188 L 19.058594 9.5136719 z M 26.025391 13.544922 L 42.449219 41.982422 L 75.273438 41.962891 L 26.025391 13.544922 z M 39.685547 54.757812 L 80.941406 54.757812 L 60.314453 90.486328 L 19.058594 90.486328 L 39.685547 54.757812 z "
       style="fill:url(#linearGradient5599);fill-opacity:1;stroke-width:12.9797;stroke-linecap:square;stroke-linejoin:bevel;paint-order:markers stroke fill"
       id="circle5179" />
  </g>
</svg>
