<?xml version="1.0" encoding="UTF-8" standalone="no"?>
<svg
   xmlns:dc="http://purl.org/dc/elements/1.1/"
   xmlns:cc="http://creativecommons.org/ns#"
   xmlns:rdf="http://www.w3.org/1999/02/22-rdf-syntax-ns#"
   xmlns:svg="http://www.w3.org/2000/svg"
   xmlns="http://www.w3.org/2000/svg"
   xmlns:xlink="http://www.w3.org/1999/xlink"
   xmlns:sodipodi="http://sodipodi.sourceforge.net/DTD/sodipodi-0.dtd"
   xmlns:inkscape="http://www.inkscape.org/namespaces/inkscape"
   inkscape:export-ydpi="96"
   inkscape:export-xdpi="96"
   inkscape:export-filename="/home/cliciom/Projetos/Sites/darktechlc.github.io/img/meta-image.png"
   sodipodi:docname="meta-image.svg"
   inkscape:version="1.0 (4035a4fb49, 2020-05-01)"
   id="svg8"
   version="1.1"
   viewBox="0 0 158.75 105.83334"
   height="400"
   width="600">
  <defs
     id="defs2">
    <rect
       id="rect854"
       height="16.973182"
       width="103.81011"
       y="36.561285"
       x="59.277438" />
    <linearGradient
       id="linearGradient5597"
       inkscape:collect="always">
      <stop
         id="stop5593"
         offset="0"
         style="stop-color:#4f7fa2;stop-opacity:1" />
      <stop
         id="stop5595"
         offset="1"
         style="stop-color:#46b09c;stop-opacity:1" />
    </linearGradient>
    <linearGradient
       gradientUnits="userSpaceOnUse"
       y2="0.76564211"
       x2="65.563553"
       y1="99.039581"
       x1="8.0986204"
       id="linearGradient5599"
       xlink:href="#linearGradient5597"
       inkscape:collect="always"
       gradientTransform="matrix(0.23283612,0,0,0.23283612,2.8114368,41.275036)" />
    <rect
       x="59.277438"
       y="36.561285"
       width="191.52742"
       height="28.917082"
       id="rect862" />
    <linearGradient
       gradientTransform="matrix(0.14001144,0,0,1.9999997,44.92361,-89.844684)"
       gradientUnits="userSpaceOnUse"
       y2="30.664404"
       x2="140.2365"
       y1="30.664404"
       x1="-26.059364"
       id="linearGradient872"
       xlink:href="#linearGradient5597"
       inkscape:collect="always" />
  </defs>
  <sodipodi:namedview
     inkscape:window-maximized="1"
     inkscape:window-y="26"
     inkscape:window-x="44"
     inkscape:window-height="742"
     inkscape:window-width="1322"
     inkscape:guide-bbox="true"
     showguides="true"
     inkscape:showpageshadow="false"
     units="px"
     showgrid="false"
     inkscape:document-rotation="0"
     inkscape:current-layer="layer1"
     inkscape:document-units="px"
     inkscape:cy="274.84815"
     inkscape:cx="283.3062"
     inkscape:zoom="0.98994949"
     inkscape:pageshadow="2"
     inkscape:pageopacity="0.0"
     borderopacity="1.0"
     bordercolor="#666666"
     pagecolor="#ffffff"
     id="base">
    <sodipodi:guide
       id="guide874"
       orientation="1,0"
       position="4.2333335,80.962503" />
    <inkscape:grid
       id="grid876"
       type="xygrid" />
    <sodipodi:guide
       id="guide878"
       orientation="1,0"
       position="154.51667,105.83334" />
  </sodipodi:namedview>
  <metadata
     id="metadata5">
    <rdf:RDF>
      <cc:Work
         rdf:about="">
        <dc:format>image/svg+xml</dc:format>
        <dc:type
           rdf:resource="http://purl.org/dc/dcmitype/StillImage" />
        <dc:title></dc:title>
      </cc:Work>
    </rdf:RDF>
  </metadata>
  <g
     id="layer1"
     inkscape:groupmode="layer"
     inkscape:label="Layer 1">
    <rect
       ry="0"
       rx="0"
       y="-3.4195964e-06"
       x="2.4999999e-06"
       height="105.83334"
       width="158.75"
       id="rect850"
       style="fill:#08090a;stroke-width:3.60945;stroke-linecap:square;stroke-linejoin:bevel;paint-order:markers stroke fill" />
    <g
       transform="translate(4.2927336)"
       id="g912">
      <path
         d="m 5.3030562,41.275035 v 4.55e-4 a 1.1076565,1.1076565 0 0 0 -0.07049,0.0041 1.1076565,1.1076565 0 0 0 -0.056849,0.0063 1.1076565,1.1076565 0 0 0 -0.022279,0.0036 1.1076565,1.1076565 0 0 0 -0.017732,0.0027 1.1076565,1.1076565 0 0 0 -0.00689,0.0014 1.1076565,1.1076565 0 0 0 -0.035018,0.0069 1.1076565,1.1076565 0 0 1 -4.54e-4,0 1.1076565,1.1076565 0 0 0 -0.03229,0.0077 1.1076565,1.1076565 0 0 0 -0.013193,0.0036 1.1076565,1.1076565 0 0 0 -0.00631,0.0013 1.1076565,1.1076565 0 0 0 -0.076402,0.02364 1.1076565,1.1076565 0 0 0 -0.00455,0.0018 1.1076565,1.1076565 0 0 0 -0.071854,0.0282 1.1076565,1.1076565 0 0 0 -0.033654,0.01546 1.1076565,1.1076565 0 0 0 -0.00315,0.0014 1.1076565,1.1076565 0 0 1 -4.54e-4,0 1.1076565,1.1076565 0 0 0 -0.02456,0.01227 1.1076565,1.1076565 0 0 0 -0.017285,0.0091 1.1076565,1.1076565 0 0 0 -0.00689,0.0036 1.1076565,1.1076565 0 0 0 -0.026372,0.01456 1.1076565,1.1076565 0 0 0 -0.00587,0.0036 1.1076565,1.1076565 0 0 0 -0.03229,0.01955 1.1076565,1.1076565 0 0 0 -0.010465,0.0073 1.1076565,1.1076565 0 0 0 -0.023188,0.01501 1.1076565,1.1076565 0 0 0 -0.015004,0.01047 1.1076565,1.1076565 0 0 0 -0.019096,0.0141 1.1076565,1.1076565 0 0 0 -0.014095,0.01047 1.1076565,1.1076565 0 0 0 -0.020014,0.01592 1.1076565,1.1076565 0 0 0 -0.014557,0.01182 1.1076565,1.1076565 0 0 0 -0.017285,0.01456 1.1076565,1.1076565 0 0 0 -0.016368,0.01456 1.1076565,1.1076565 0 0 0 -0.014095,0.01319 1.1076565,1.1076565 0 0 0 -0.019097,0.01773 1.1076565,1.1076565 0 0 0 -0.00631,0.0063 1.1076565,1.1076565 0 0 0 -0.050477,0.05412 1.1076565,1.1076565 0 0 0 -0.00775,0.0086 1.1076565,1.1076565 0 0 0 -0.011367,0.01364 1.1076565,1.1076565 0 0 0 -0.023644,0.0291 1.1076565,1.1076565 0 0 0 -0.00955,0.01273 1.1076565,1.1076565 0 0 0 -0.01364,0.01864 1.1076565,1.1076565 0 0 0 -0.019096,0.02683 1.1076565,1.1076565 0 0 0 -4.54e-4,0.0014 1.1076565,1.1076565 0 0 0 -0.017285,0.02591 1.1076565,1.1076565 0 0 0 -0.03229,0.05457 1.1076565,1.1076565 0 0 0 -0.011367,0.02092 1.1076565,1.1076565 0 0 0 -0.00689,0.01227 1.1076565,1.1076565 0 0 0 -0.029562,0.06276 1.1076565,1.1076565 0 0 0 -0.00955,0.02228 1.1076565,1.1076565 0 0 0 -0.00455,0.01137 1.1076565,1.1076565 0 0 0 -0.010465,0.02729 1.1076565,1.1076565 0 0 0 -0.00183,0.0054 1.1076565,1.1076565 0 0 0 -0.00819,0.02364 1.1076565,1.1076565 0 0 0 -0.0091,0.02866 1.1076565,1.1076565 0 0 0 -0.015004,0.05366 1.1076565,1.1076565 0 0 0 -0.00733,0.02956 1.1076565,1.1076565 0 0 0 -0.010912,0.05549 1.1076565,1.1076565 0 0 0 -0.00587,0.03956 1.1076565,1.1076565 0 0 0 0,0.0023 1.1076565,1.1076565 0 0 0 -0.00315,0.02456 1.1076565,1.1076565 0 0 0 -0.00315,0.03229 1.1076565,1.1076565 0 0 0 -4.539e-4,0.0059 1.1076565,1.1076565 0 0 0 -0.00183,0.02774 1.1076565,1.1076565 0 0 0 -0.00139,0.05366 1.1076565,1.1076565 0 0 0 0.00183,0.05866 1.1076565,1.1076565 0 0 0 8.8e-4,0.01319 1.1076565,1.1076565 0 0 0 4.54e-4,0.0073 1.1076565,1.1076565 0 0 0 0.00775,0.07458 1.1076565,1.1076565 0 0 0 0.00271,0.01637 1.1076565,1.1076565 0 0 0 0.00499,0.03046 1.1076565,1.1076565 0 0 0 0,8.8e-4 1.1076565,1.1076565 0 0 0 0.00733,0.03502 1.1076565,1.1076565 0 0 0 0.00587,0.02592 1.1076565,1.1076565 0 0 0 0.00455,0.01955 1.1076565,1.1076565 0 0 0 8.8e-4,0.0027 1.1076565,1.1076565 0 0 0 0.010003,0.03456 1.1076565,1.1076565 0 0 0 0.00183,0.0063 1.1076565,1.1076565 0 0 0 0.011367,0.03411 1.1076565,1.1076565 0 0 0 0.027288,0.07139 1.1076565,1.1076565 0 0 0 0.00403,0.01047 1.1076565,1.1076565 0 0 0 0.00955,0.02046 1.1076565,1.1076565 0 0 0 0.00733,0.01592 1.1076565,1.1076565 0 0 0 0.00315,0.0063 1.1076565,1.1076565 0 0 0 0.023644,0.04548 l -4.54e-4,4.54e-4 0.013193,0.02319 a 1.1076565,1.1076565 0 0 1 4.54e-4,4.54e-4 1.1076565,1.1076565 0 0 0 0.00733,0.01273 l 5.7545067,9.967486 -5.7545084,9.967387 a 1.1076565,1.1076565 0 0 0 -0.00775,0.01319 1.1076565,1.1076565 0 0 0 -0.00587,0.01091 l -0.00733,0.01227 4.539e-4,4.67e-4 a 1.1076565,1.1076565 0 0 0 -0.00411,0.0073 1.1076565,1.1076565 0 0 0 -0.030016,0.06048 1.1076565,1.1076565 0 0 0 -0.00955,0.02046 1.1076565,1.1076565 0 0 0 -0.00403,0.01047 1.1076565,1.1076565 0 0 0 -0.010465,0.02501 1.1076565,1.1076565 0 0 0 -0.00227,0.0063 1.1076565,1.1076565 0 0 0 -0.025924,0.07412 1.1076565,1.1076565 0 0 0 -0.00183,0.0063 1.1076565,1.1076565 0 0 0 -0.010912,0.03728 1.1076565,1.1076565 0 0 0 -0.00455,0.01955 1.1076565,1.1076565 0 0 0 -0.00455,0.0191 1.1076565,1.1076565 0 0 0 -0.00139,0.0069 1.1076565,1.1076565 0 0 0 -0.00733,0.03591 1.1076565,1.1076565 0 0 0 -0.00499,0.03046 1.1076565,1.1076565 0 0 0 -0.00271,0.01637 1.1076565,1.1076565 0 0 0 0,0.0014 1.1076565,1.1076565 0 0 0 -0.00455,0.03547 1.1076565,1.1076565 0 0 0 -0.00315,0.03775 1.1076565,1.1076565 0 0 0 -4.54e-4,0.0073 1.1076565,1.1076565 0 0 0 -8.801e-4,0.01319 1.1076565,1.1076565 0 0 0 -0.00183,0.05867 1.1076565,1.1076565 0 0 0 0.00139,0.05366 1.1076565,1.1076565 0 0 0 0.00183,0.02774 1.1076565,1.1076565 0 0 0 4.539e-4,0.0059 1.1076565,1.1076565 0 0 0 0.00315,0.03229 1.1076565,1.1076565 0 0 0 0.00315,0.02456 1.1076565,1.1076565 0 0 0 0,0.0023 1.1076565,1.1076565 0 0 0 0.00587,0.03956 1.1076565,1.1076565 0 0 0 4.54e-4,0.0018 1.1076565,1.1076565 0 0 0 0.00455,0.02456 1.1076565,1.1076565 0 0 0 0.00587,0.0291 1.1076565,1.1076565 0 0 0 0.00733,0.02956 1.1076565,1.1076565 0 0 0 0,4.66e-4 1.1076565,1.1076565 0 0 0 0.00631,0.02411 1.1076565,1.1076565 0 0 0 0.00863,0.02909 1.1076565,1.1076565 0 0 0 0.019097,0.05776 1.1076565,1.1076565 0 0 0 0.010465,0.02729 1.1076565,1.1076565 0 0 0 0.00455,0.01137 1.1076565,1.1076565 0 0 0 0.00955,0.02228 1.1076565,1.1076565 0 0 0 0.029562,0.06276 1.1076565,1.1076565 0 0 0 0.00689,0.01227 1.1076565,1.1076565 0 0 0 0.011367,0.02092 1.1076565,1.1076565 0 0 0 0.00455,0.0086 1.1076565,1.1076565 0 0 0 0.012731,0.02138 1.1076565,1.1076565 0 0 0 0.015004,0.02456 1.1076565,1.1076565 0 0 0 0.017285,0.02592 1.1076565,1.1076565 0 0 0 0,4.65e-4 1.1076565,1.1076565 0 0 0 4.546e-4,8.8e-4 1.1076565,1.1076565 0 0 0 0.019097,0.02683 1.1076565,1.1076565 0 0 0 0.01364,0.01864 1.1076565,1.1076565 0 0 0 0.00955,0.01273 1.1076565,1.1076565 0 0 0 0.042747,0.0514 1.1076565,1.1076565 0 0 0 0.00863,0.01 1.1076565,1.1076565 0 0 0 0.012276,0.01319 1.1076565,1.1076565 0 0 0 0.026372,0.02774 1.1076565,1.1076565 0 0 0 0.00955,0.0096 1.1076565,1.1076565 0 0 0 0.019096,0.01774 1.1076565,1.1076565 0 0 0 0.014095,0.01319 1.1076565,1.1076565 0 0 0 0.016368,0.01456 1.1076565,1.1076565 0 0 0 0.017285,0.01456 1.1076565,1.1076565 0 0 0 0.014557,0.01182 1.1076565,1.1076565 0 0 0 0.020013,0.01592 1.1076565,1.1076565 0 0 0 0.014095,0.01046 1.1076565,1.1076565 0 0 0 0.019096,0.0141 1.1076565,1.1076565 0 0 0 0.015004,0.01047 1.1076565,1.1076565 0 0 0 0.023195,0.01501 1.1076565,1.1076565 0 0 0 0.010465,0.0073 1.1076565,1.1076565 0 0 0 0.010912,0.0069 1.1076565,1.1076565 0 0 0 0.021377,0.01273 1.1076565,1.1076565 0 0 0 0.00587,0.0036 1.1076565,1.1076565 0 0 0 0.026372,0.01456 1.1076565,1.1076565 0 0 0 0.00689,0.0036 1.1076565,1.1076565 0 0 0 0.017285,0.0091 1.1076565,1.1076565 0 0 0 0.025008,0.01227 1.1076565,1.1076565 0 0 0 0.00315,0.0014 1.1076565,1.1076565 0 0 0 0.033654,0.01546 1.1076565,1.1076565 0 0 0 0.00227,8.8e-4 1.1076565,1.1076565 0 0 0 0.033192,0.01364 1.1076565,1.1076565 0 0 0 0.036382,0.01364 1.1076565,1.1076565 0 0 0 0.00455,0.0018 1.1076565,1.1076565 0 0 0 0.00543,0.0018 1.1076565,1.1076565 0 0 0 0.034108,0.01091 1.1076565,1.1076565 0 0 0 0.036836,0.01091 1.1076565,1.1076565 0 0 0 0.00631,0.0014 1.1076565,1.1076565 0 0 0 0.013193,0.0036 1.1076565,1.1076565 0 0 0 0.032744,0.0077 1.1076565,1.1076565 0 0 0 0.035018,0.0069 1.1076565,1.1076565 0 0 0 0.02456,0.0041 1.1076565,1.1076565 0 0 0 0.022279,0.0036 1.1076565,1.1076565 0 0 0 0.00227,4.66e-4 1.1076565,1.1076565 0 0 0 0.035472,0.0041 1.1076565,1.1076565 0 0 0 0.019096,0.0018 1.1076565,1.1076565 0 0 0 0.07049,0.0041 v 3.91e-4 h 0.027289 a 1.1076565,1.1076565 0 0 0 0.017732,0 H 17.487127 a 1.1076565,1.1076565 0 0 0 0.0069,0 1.1076565,1.1076565 0 0 0 0.04275,-8.8e-4 1.1076565,1.1076565 0 0 0 0.01773,-8.8e-4 1.1076565,1.1076565 0 0 0 0.0018,0 1.1076565,1.1076565 0 0 0 0.08322,-0.0077 1.1076565,1.1076565 0 0 0 0.02456,-0.0036 1.1076565,1.1076565 0 0 0 0.0027,-4.67e-4 1.1076565,1.1076565 0 0 0 0.03956,-0.0069 1.1076565,1.1076565 0 0 0 0.01729,-0.0036 1.1076565,1.1076565 0 0 0 0.02411,-0.0054 1.1076565,1.1076565 0 0 0 0.0018,-4.65e-4 1.1076565,1.1076565 0 0 0 0.03956,-0.01 1.1076565,1.1076565 0 0 0 0.01729,-0.005 1.1076565,1.1076565 0 0 0 0.02364,-0.0073 1.1076565,1.1076565 0 0 0 0.0031,-8.8e-4 1.1076565,1.1076565 0 0 0 0.03728,-0.01273 1.1076565,1.1076565 0 0 0 0.01682,-0.0063 1.1076565,1.1076565 0 0 0 0.02319,-0.0091 1.1076565,1.1076565 0 0 0 0.01637,-0.0069 1.1076565,1.1076565 0 0 0 0.02274,-0.01 1.1076565,1.1076565 0 0 0 0.0014,-8.8e-4 1.1076565,1.1076565 0 0 0 0.03728,-0.01729 1.1076565,1.1076565 0 0 0 0.01592,-0.0082 1.1076565,1.1076565 0 0 0 0.02183,-0.01182 1.1076565,1.1076565 0 0 0 4.66e-4,-4.66e-4 1.1076565,1.1076565 0 0 0 0.01545,-0.0082 1.1076565,1.1076565 0 0 0 0.0073,-0.0046 1.1076565,1.1076565 0 0 0 0.0291,-0.01729 1.1076565,1.1076565 0 0 0 0.02092,-0.01319 1.1076565,1.1076565 0 0 0 0.01501,-0.01 1.1076565,1.1076565 0 0 0 0.02046,-0.0141 1.1076565,1.1076565 0 0 0 0.0054,-0.0041 1.1076565,1.1076565 0 0 0 0.02866,-0.02138 1.1076565,1.1076565 0 0 0 0.0141,-0.01091 1.1076565,1.1076565 0 0 0 0.0036,-0.0027 1.1076565,1.1076565 0 0 0 0.02956,-0.02456 1.1076565,1.1076565 0 0 0 0.01865,-0.01637 1.1076565,1.1076565 0 0 0 0.0027,-0.0023 1.1076565,1.1076565 0 0 0 0.0282,-0.02683 1.1076565,1.1076565 0 0 0 0.01273,-0.01273 1.1076565,1.1076565 0 0 0 0.01729,-0.01774 1.1076565,1.1076565 0 0 0 0.0018,-0.0018 1.1076565,1.1076565 0 0 0 0.02729,-0.02956 1.1076565,1.1076565 0 0 0 0.01183,-0.01364 1.1076565,1.1076565 0 0 0 0.0023,-0.0028 1.1076565,1.1076565 0 0 0 0.07504,-0.09914 1.1076565,1.1076565 0 0 0 0.01364,-0.02092 1.1076565,1.1076565 0 0 0 0.0096,-0.01501 1.1076565,1.1076565 0 0 0 0.0069,-0.01137 l 4.66e-4,-8.8e-4 a 1.1076565,1.1076565 0 0 0 0.0054,-0.0091 1.1076565,1.1076565 0 0 0 0.0031,-0.0059 l 6.078789,-10.528021 a 1.1076565,1.1076565 0 0 0 0.0069,-0.01183 1.1076565,1.1076565 0 0 0 0.0086,-0.01592 1.1076565,1.1076565 0 0 0 4.66e-4,-0.0014 1.1076565,1.1076565 0 0 0 0.0082,-0.0141 1.1076565,1.1076565 0 0 0 0.01137,-0.02228 1.1076565,1.1076565 0 0 0 0.0077,-0.01592 1.1076565,1.1076565 0 0 0 0.0027,-0.0063 1.1076565,1.1076565 0 0 0 0.0077,-0.01637 1.1076565,1.1076565 0 0 0 0.0073,-0.01637 1.1076565,1.1076565 0 0 0 0.0096,-0.02274 1.1076565,1.1076565 0 0 0 0.0063,-0.01682 1.1076565,1.1076565 0 0 0 0.0086,-0.02319 1.1076565,1.1076565 0 0 0 0.0059,-0.01682 1.1076565,1.1076565 0 0 0 0.0036,-0.01 1.1076565,1.1076565 0 0 0 0.0096,-0.03046 1.1076565,1.1076565 0 0 0 0.0069,-0.02364 1.1076565,1.1076565 0 0 0 0,-4.65e-4 1.1076565,1.1076565 0 0 0 0.0063,-0.02364 1.1076565,1.1076565 0 0 0 0.0031,-0.01273 1.1076565,1.1076565 0 0 0 0.0014,-0.005 1.1076565,1.1076565 0 0 0 0.0036,-0.01729 1.1076565,1.1076565 0 0 0 0.005,-0.02411 1.1076565,1.1076565 0 0 0 4.66e-4,-0.0014 1.1076565,1.1076565 0 0 0 0.0041,-0.02319 1.1076565,1.1076565 0 0 0 4.66e-4,-0.0018 1.1076565,1.1076565 0 0 0 0.005,-0.03365 1.1076565,1.1076565 0 0 0 0,-4.67e-4 1.1076565,1.1076565 0 0 0 8.8e-4,-0.005 1.1076565,1.1076565 0 0 0 0.005,-0.04365 1.1076565,1.1076565 0 0 0 0.0014,-0.01773 1.1076565,1.1076565 0 0 0 0.0014,-0.01819 1.1076565,1.1076565 0 0 0 4.65e-4,-0.01364 1.1076565,1.1076565 0 0 0 0.0014,-0.02866 1.1076565,1.1076565 0 0 0 0,-0.0073 1.1076565,1.1076565 0 0 0 4.66e-4,-0.01773 1.1076565,1.1076565 0 0 0 -4.66e-4,-0.01774 1.1076565,1.1076565 0 0 0 0,-0.0073 1.1076565,1.1076565 0 0 0 -8.8e-4,-0.02092 1.1076565,1.1076565 0 0 0 0,-0.0073 1.1076565,1.1076565 0 0 0 -4.65e-4,-0.0073 1.1076565,1.1076565 0 0 0 -4.65e-4,-0.0054 1.1076565,1.1076565 0 0 0 0,-0.0014 1.1076565,1.1076565 0 0 0 -4.66e-4,-0.0073 1.1076565,1.1076565 0 0 0 -0.0023,-0.02866 1.1076565,1.1076565 0 0 0 -0.0014,-0.01364 1.1076565,1.1076565 0 0 0 -0.0031,-0.02592 1.1076565,1.1076565 0 0 0 -4.66e-4,-0.0027 1.1076565,1.1076565 0 0 0 -0.0018,-0.01364 1.1076565,1.1076565 0 0 0 -0.0046,-0.02866 1.1076565,1.1076565 0 0 0 -0.0023,-0.01364 1.1076565,1.1076565 0 0 0 -0.0018,-0.0096 1.1076565,1.1076565 0 0 0 -0.0054,-0.02546 1.1076565,1.1076565 0 0 0 -0.0014,-0.0069 1.1076565,1.1076565 0 0 0 -0.0036,-0.01546 1.1076565,1.1076565 0 0 0 -0.0031,-0.01273 1.1076565,1.1076565 0 0 0 -0.0014,-0.0063 1.1076565,1.1076565 0 0 0 -0.0018,-0.0069 1.1076565,1.1076565 0 0 0 -0.0031,-0.01091 1.1076565,1.1076565 0 0 0 -4.65e-4,-0.0018 1.1076565,1.1076565 0 0 0 -0.0041,-0.01501 1.1076565,1.1076565 0 0 0 -0.0023,-0.0069 1.1076565,1.1076565 0 0 0 -0.0018,-0.0063 1.1076565,1.1076565 0 0 0 -0.0091,-0.02774 1.1076565,1.1076565 0 0 0 -0.0046,-0.01319 1.1076565,1.1076565 0 0 0 -0.0096,-0.02683 1.1076565,1.1076565 0 0 0 -0.0028,-0.0063 1.1076565,1.1076565 0 0 0 -0.01319,-0.03319 1.1076565,1.1076565 0 0 0 -0.0054,-0.01273 1.1076565,1.1076565 0 0 0 -0.01227,-0.02637 1.1076565,1.1076565 0 0 0 -0.01864,-0.0382 1.1076565,1.1076565 0 0 0 -0.0069,-0.01227 1.1076565,1.1076565 0 0 0 -0.0036,-0.0063 1.1076565,1.1076565 0 0 0 -8.8e-4,-0.0018 1.1076565,1.1076565 0 0 0 -0.0014,-0.0023 1.1076565,1.1076565 0 0 0 -0.0077,-0.01501 1.1076565,1.1076565 0 0 0 -0.0036,-0.0059 1.1076565,1.1076565 0 0 0 -8.8e-4,-0.0014 1.1076565,1.1076565 0 0 0 -0.0023,-0.0046 L 18.452909,41.828983 a 1.1076565,1.1076565 0 0 1 0,-4.54e-4 l -0.0031,-0.0054 a 1.1076565,1.1076565 0 0 0 -0.01273,-0.02138 1.1076565,1.1076565 0 0 0 -0.0096,-0.01501 1.1076565,1.1076565 0 0 0 -0.01364,-0.02092 1.1076565,1.1076565 0 0 0 -0.0023,-0.0028 1.1076565,1.1076565 0 0 0 -0.07504,-0.09914 1.1076565,1.1076565 0 0 0 -0.01183,-0.01364 1.1076565,1.1076565 0 0 0 -0.0063,-0.0069 1.1076565,1.1076565 0 0 0 -0.02274,-0.02456 1.1076565,1.1076565 0 0 0 -0.01729,-0.01774 1.1076565,1.1076565 0 0 0 -0.01273,-0.01273 1.1076565,1.1076565 0 0 0 -0.0046,-0.0041 1.1076565,1.1076565 0 0 0 -0.02637,-0.02501 1.1076565,1.1076565 0 0 0 -0.01864,-0.01637 1.1076565,1.1076565 0 0 0 -0.0018,-0.0013 1.1076565,1.1076565 0 0 0 -0.03138,-0.02591 1.1076565,1.1076565 0 0 0 -0.0141,-0.01091 1.1076565,1.1076565 0 0 0 -0.0023,-0.0018 1.1076565,1.1076565 0 0 0 -0.03182,-0.02364 1.1076565,1.1076565 0 0 0 -0.02046,-0.0141 1.1076565,1.1076565 0 0 0 -0.01501,-0.01 1.1076565,1.1076565 0 0 0 -0.05729,-0.03502 1.1076565,1.1076565 0 0 0 -0.01592,-0.0086 1.1076565,1.1076565 0 0 0 -0.02183,-0.01182 1.1076565,1.1076565 0 0 0 -0.01592,-0.0082 1.1076565,1.1076565 0 0 0 -0.0077,-0.0036 1.1076565,1.1076565 0 0 0 -0.03093,-0.01456 1.1076565,1.1076565 0 0 0 -0.02274,-0.01 1.1076565,1.1076565 0 0 0 -0.01637,-0.0069 1.1076565,1.1076565 0 0 0 -0.02319,-0.0091 1.1076565,1.1076565 0 0 0 -0.01682,-0.0063 1.1076565,1.1076565 0 0 0 -0.0096,-0.0031 1.1076565,1.1076565 0 0 0 -0.03093,-0.01047 1.1076565,1.1076565 0 0 0 -0.02364,-0.0073 1.1076565,1.1076565 0 0 0 -0.01729,-0.005 1.1076565,1.1076565 0 0 0 -0.0082,-0.0018 1.1076565,1.1076565 0 0 0 -0.03319,-0.0086 1.1076565,1.1076565 0 0 0 -0.02411,-0.0054 1.1076565,1.1076565 0 0 0 -0.01729,-0.0036 1.1076565,1.1076565 0 0 0 -0.01091,-0.0018 1.1076565,1.1076565 0 0 0 -0.03138,-0.0054 1.1076565,1.1076565 0 0 0 -0.02456,-0.0036 1.1076565,1.1076565 0 0 0 -0.0063,-8.8e-4 1.1076565,1.1076565 0 0 0 -0.07867,-0.0069 1.1076565,1.1076565 0 0 0 -0.01773,-8.8e-4 1.1076565,1.1076565 0 0 0 -0.0073,0 1.1076565,1.1076565 0 0 0 -0.02953,-8.8e-4 1.1076565,1.1076565 0 0 0 -0.0059,0 1.1076565,1.1076565 0 0 0 -0.0069,0 z m 1.9459091,2.215126 H 16.85482 l 4.802701,8.318889 h -9.605856 z m 1.6221224,0.938621 3.8240603,6.621277 7.642664,-0.0046 z m 3.1805773,9.595849 h 9.605856 L 16.85482,62.34352 H 7.2489653 Z"
         style="fill:url(#linearGradient5599);fill-opacity:1;stroke-width:3.02214;stroke-linecap:square;stroke-linejoin:bevel;paint-order:markers stroke fill"
         id="circle5179" />
      <text
         xml:space="preserve"
         id="text852"
         style="font-style:normal;font-variant:normal;font-weight:600;font-stretch:normal;font-size:12.7px;line-height:1.25;font-family:Montserrat;-inkscape-font-specification:'Montserrat Semi-Bold';letter-spacing:0px;word-spacing:0px;white-space:pre;shape-inside:url(#rect854);fill:#dee4e8;fill-opacity:1;stroke:none;"
         transform="translate(-28.792874,4.3958004)"><tspan
           x="59.277344"
           y="48.233034"><tspan
             style="font-style:normal;font-variant:normal;font-weight:600;font-stretch:normal;font-size:12.7px;font-family:Montserrat;-inkscape-font-specification:'Montserrat Semi-Bold';fill:#dee4e8;fill-opacity:1">LUÍS CLÍCIO</tspan></tspan></text>
      <text
         style="font-style:normal;font-variant:normal;font-weight:normal;font-stretch:normal;font-size:9.525px;line-height:1.25;font-family:Montserrat;-inkscape-font-specification:Montserrat;letter-spacing:0px;word-spacing:0px;white-space:pre;shape-inside:url(#rect862);fill:#dee4e8;fill-opacity:1;stroke:none;"
         id="text860"
         xml:space="preserve"
         transform="translate(-28.6066,19.186239)"><tspan
           x="59.277344"
           y="45.314912"><tspan
             style="font-style:normal;font-variant:normal;font-weight:normal;font-stretch:normal;font-size:9.525px;font-family:Montserrat;-inkscape-font-specification:Montserrat;fill:#dee4e8;fill-opacity:1">DESENVOLVEDOR WEB</tspan></tspan></text>
    </g>
    <rect
       rx="1.0583334"
       transform="rotate(90)"
       y="-33.973431"
       x="41.275002"
       height="2.1166668"
       width="23.283335"
       id="rect864"
       style="fill:url(#linearGradient872);fill-opacity:1;stroke-width:1.91003;stroke-linecap:square;stroke-linejoin:bevel;paint-order:markers stroke fill" />
    <rect
       rx="0"
       y="-7.3305764"
       x="4.2333336"
       height="5.2916656"
       width="150.28334"
       id="rect880"
       style="fill:#dee4e8;fill-opacity:1;stroke-width:3.60945;stroke-linecap:square;stroke-linejoin:bevel;paint-order:markers stroke fill" />
  </g>
</svg>
