<?xml version="1.0" encoding="UTF-8" standalone="no"?>
<!-- Created with Inkscape (http://www.inkscape.org/) -->

<svg
   xmlns:dc="http://purl.org/dc/elements/1.1/"
   xmlns:cc="http://creativecommons.org/ns#"
   xmlns:rdf="http://www.w3.org/1999/02/22-rdf-syntax-ns#"
   xmlns:svg="http://www.w3.org/2000/svg"
   xmlns="http://www.w3.org/2000/svg"
   xmlns:sodipodi="http://sodipodi.sourceforge.net/DTD/sodipodi-0.dtd"
   xmlns:inkscape="http://www.inkscape.org/namespaces/inkscape"
   width="600"
   height="600"
   viewBox="0 0 158.75 158.75"
   version="1.1"
   id="svg8"
   inkscape:version="0.92.3 (2405546, 2018-03-11)"
   sodipodi:docname="bintodec.svg"
   inkscape:export-filename="/home/clicio/Projetos/Sites/darktechlc.github.io/lab/decbin/img/bintodec.png"
   inkscape:export-xdpi="96"
   inkscape:export-ydpi="96">
  <defs
     id="defs2" />
  <sodipodi:namedview
     id="base"
     pagecolor="#ffffff"
     bordercolor="#666666"
     borderopacity="1.0"
     inkscape:pageopacity="0.0"
     inkscape:pageshadow="2"
     inkscape:zoom="0.7"
     inkscape:cx="256.17335"
     inkscape:cy="268.2001"
     inkscape:document-units="mm"
     inkscape:current-layer="text1211"
     showgrid="false"
     units="px"
     inkscape:window-width="1366"
     inkscape:window-height="740"
     inkscape:window-x="0"
     inkscape:window-y="28"
     inkscape:window-maximized="1">
    <inkscape:grid
       type="xygrid"
       id="grid815" />
  </sodipodi:namedview>
  <metadata
     id="metadata5">
    <rdf:RDF>
      <cc:Work
         rdf:about="">
        <dc:format>image/svg+xml</dc:format>
        <dc:type
           rdf:resource="http://purl.org/dc/dcmitype/StillImage" />
        <dc:title></dc:title>
      </cc:Work>
    </rdf:RDF>
  </metadata>
  <g
     inkscape:label="Layer 1"
     inkscape:groupmode="layer"
     id="layer1"
     transform="translate(0,-138.24998)">
    <g
       transform="matrix(0.49999999,0,0,0.49999999,63.764583,110.13541)"
       id="g1077" />
    <flowRoot
       xml:space="preserve"
       id="flowRoot1193"
       style="fill:black;fill-opacity:1;stroke:none;font-family:sans-serif;font-style:normal;font-weight:normal;font-size:40px;line-height:1.25;letter-spacing:0px;word-spacing:0px"><flowRegion
         id="flowRegion1195"><rect
           id="rect1197"
           width="125.71429"
           height="77.14286"
           x="20"
           y="30" /></flowRegion><flowPara
         id="flowPara1199"></flowPara></flowRoot>    <flowRoot
       xml:space="preserve"
       id="flowRoot1201"
       style="fill:black;fill-opacity:1;stroke:none;font-family:sans-serif;font-style:normal;font-weight:normal;font-size:40px;line-height:1.25;letter-spacing:0px;word-spacing:0px"><flowRegion
         id="flowRegion1203"><rect
           id="rect1205"
           width="117.14286"
           height="60"
           x="58.57143"
           y="40" /></flowRegion><flowPara
         id="flowPara1207"></flowPara></flowRoot>    <g
       aria-label="b*2p"
       style="font-style:normal;font-weight:normal;font-size:10.58333302px;line-height:1.25;font-family:sans-serif;letter-spacing:0px;word-spacing:0px;fill:#000000;fill-opacity:1;stroke:none;stroke-width:0.26458332"
       id="text1211">
      <rect
         style="opacity:1;fill:#08090a;fill-opacity:1;stroke:none;stroke-width:1.32291663;stroke-linecap:round;stroke-linejoin:miter;stroke-miterlimit:4;stroke-dasharray:none;stroke-opacity:1;paint-order:fill markers stroke"
         id="rect2384"
         width="158.75"
         height="158.75"
         x="-1.4210855e-14"
         y="138.24998" />
      <g
         id="g2382"
         transform="translate(0,-2.4266836)">
        <g
           transform="translate(1.3252761)"
           id="g2263">
          <g
             id="g1191"
             transform="matrix(0.88739832,0,0,0.88739832,11.614564,45.945176)">
            <flowRoot
               transform="matrix(0.28528184,0,0,0.26458333,-3.6539767,134.09224)"
               style="font-style:normal;font-weight:normal;font-size:40px;line-height:1.25;font-family:sans-serif;letter-spacing:0px;word-spacing:0px;fill:#46b09c;fill-opacity:0.98584906;stroke:none"
               id="flowRoot819"
               xml:space="preserve"><flowRegion
                 style="fill:#46b09c;fill-opacity:0.98584906"
                 id="flowRegion821"><rect
                   style="fill:#46b09c;fill-opacity:0.98584906"
                   y="60"
                   x="20"
                   height="80"
                   width="180"
                   id="rect823" /></flowRegion><flowPara
                 style="font-size:32px;fill:#46b09c;fill-opacity:0.98584906"
                 id="flowPara825">BINÁRIO</flowPara></flowRoot>            <flowRoot
               transform="matrix(0.26458333,0,0,0.26458333,-0.53453906,139.31906)"
               style="font-style:normal;font-weight:normal;font-size:40px;line-height:1.25;font-family:sans-serif;letter-spacing:0px;word-spacing:0px;fill:#46b09c;fill-opacity:0.98584906;stroke:none"
               id="flowRoot827"
               xml:space="preserve"><flowRegion
                 style="fill:#46b09c;fill-opacity:0.98584906"
                 id="flowRegion829"><rect
                   style="fill:#46b09c;fill-opacity:0.98584906"
                   y="40"
                   x="200"
                   height="60"
                   width="60"
                   id="rect831" /></flowRegion><flowPara
                 id="flowPara833">1</flowPara></flowRoot>            <flowRoot
               xml:space="preserve"
               id="flowRoot841"
               style="font-style:normal;font-weight:normal;font-size:40px;line-height:1.25;font-family:sans-serif;letter-spacing:0px;word-spacing:0px;fill:#46b09c;fill-opacity:0.98584906;stroke:none"
               transform="matrix(0.26458333,0,0,0.26458333,28.597841,139.31906)"><flowRegion
                 style="fill:#46b09c;fill-opacity:0.98584906"
                 id="flowRegion837"><rect
                   style="fill:#46b09c;fill-opacity:0.98584906"
                   id="rect835"
                   width="60"
                   height="60"
                   x="200"
                   y="40" /></flowRegion><flowPara
                 id="flowPara839">1</flowPara></flowRoot>            <flowRoot
               transform="matrix(0.26458333,0,0,0.26458333,57.46295,139.31906)"
               style="font-style:normal;font-weight:normal;font-size:40px;line-height:1.25;font-family:sans-serif;letter-spacing:0px;word-spacing:0px;fill:#46b09c;fill-opacity:0.98584906;stroke:none"
               id="flowRoot849"
               xml:space="preserve"><flowRegion
                 style="fill:#46b09c;fill-opacity:0.98584906"
                 id="flowRegion845"><rect
                   style="fill:#46b09c;fill-opacity:0.98584906"
                   y="40"
                   x="200"
                   height="60"
                   width="60"
                   id="rect843" /></flowRegion><flowPara
                 id="flowPara847">0</flowPara></flowRoot>            <flowRoot
               xml:space="preserve"
               id="flowRoot857"
               style="font-style:normal;font-weight:normal;font-size:40px;line-height:1.25;font-family:sans-serif;letter-spacing:0px;word-spacing:0px;fill:#46b09c;fill-opacity:0.98584906;stroke:none"
               transform="matrix(0.26458333,0,0,0.26458333,87.129867,139.31906)"><flowRegion
                 style="fill:#46b09c;fill-opacity:0.98584906"
                 id="flowRegion853"><rect
                   style="fill:#46b09c;fill-opacity:0.98584906"
                   id="rect851"
                   width="60"
                   height="60"
                   x="200"
                   y="40" /></flowRegion><flowPara
                 id="flowPara855">0</flowPara></flowRoot>            <flowRoot
               xml:space="preserve"
               id="flowRoot865"
               style="font-style:normal;font-weight:normal;font-size:40px;line-height:1.25;font-family:sans-serif;letter-spacing:0px;word-spacing:0px;fill:#ba0c3d;fill-opacity:0.98113248;stroke:none"
               transform="matrix(0.26458333,0,0,0.26458333,-3.1750001,154.11598)"><flowRegion
                 style="fill:#ba0c3d;fill-opacity:0.98113248"
                 id="flowRegion861"><rect
                   style="fill:#ba0c3d;fill-opacity:0.98113248"
                   id="rect859"
                   width="180"
                   height="80"
                   x="20"
                   y="60" /></flowRegion><flowPara
                 id="flowPara863"
                 style="font-size:32px;fill:#ba0c3d;fill-opacity:0.98113248">POSIÇÃO</flowPara></flowRoot>            <flowRoot
               xml:space="preserve"
               id="flowRoot873"
               style="font-style:normal;font-weight:normal;font-size:40px;line-height:1.25;font-family:sans-serif;letter-spacing:0px;word-spacing:0px;fill:#ba0c3d;fill-opacity:0.98113242;stroke:none"
               transform="matrix(0.26458333,0,0,0.26458333,-0.53453906,159.3428)"><flowRegion
                 style="fill:#ba0c3d;fill-opacity:0.98113242"
                 id="flowRegion869"><rect
                   style="fill:#ba0c3d;fill-opacity:0.98113242"
                   id="rect867"
                   width="60"
                   height="60"
                   x="200"
                   y="40" /></flowRegion><flowPara
                 id="flowPara871">3</flowPara></flowRoot>            <flowRoot
               transform="matrix(0.26458333,0,0,0.26458333,28.597841,159.3428)"
               style="font-style:normal;font-weight:normal;font-size:40px;line-height:1.25;font-family:sans-serif;letter-spacing:0px;word-spacing:0px;fill:#ba0c3d;fill-opacity:0.98113242;stroke:none"
               id="flowRoot881"
               xml:space="preserve"><flowRegion
                 style="fill:#ba0c3d;fill-opacity:0.98113242"
                 id="flowRegion877"><rect
                   style="fill:#ba0c3d;fill-opacity:0.98113242"
                   y="40"
                   x="200"
                   height="60"
                   width="60"
                   id="rect875" /></flowRegion><flowPara
                 id="flowPara879">2</flowPara></flowRoot>            <flowRoot
               xml:space="preserve"
               id="flowRoot889"
               style="font-style:normal;font-weight:normal;font-size:40px;line-height:1.25;font-family:sans-serif;letter-spacing:0px;word-spacing:0px;fill:#ba0c3d;fill-opacity:0.98113242;stroke:none"
               transform="matrix(0.26458333,0,0,0.26458333,57.46295,159.3428)"><flowRegion
                 style="fill:#ba0c3d;fill-opacity:0.98113242"
                 id="flowRegion885"><rect
                   style="fill:#ba0c3d;fill-opacity:0.98113242"
                   id="rect883"
                   width="60"
                   height="60"
                   x="200"
                   y="40" /></flowRegion><flowPara
                 id="flowPara887">1</flowPara></flowRoot>            <flowRoot
               transform="matrix(0.26458333,0,0,0.26458333,87.129867,159.3428)"
               style="font-style:normal;font-weight:normal;font-size:40px;line-height:1.25;font-family:sans-serif;letter-spacing:0px;word-spacing:0px;fill:#ba0c3d;fill-opacity:0.98113242;stroke:none"
               id="flowRoot897"
               xml:space="preserve"><flowRegion
                 style="fill:#ba0c3d;fill-opacity:0.98113242"
                 id="flowRegion893"><rect
                   style="fill:#ba0c3d;fill-opacity:0.98113242"
                   y="40"
                   x="200"
                   height="60"
                   width="60"
                   id="rect891" /></flowRegion><flowPara
                 id="flowPara895">0</flowPara></flowRoot>            <flowRoot
               transform="matrix(0.22981656,0,0,0.22445371,-2.2090759,175.41637)"
               style="font-style:normal;font-weight:normal;font-size:40px;line-height:1.25;font-family:sans-serif;letter-spacing:0px;word-spacing:0px;fill:#dee4e8;fill-opacity:1;stroke:none"
               id="flowRoot905"
               xml:space="preserve"><flowRegion
                 style="fill:#dee4e8;fill-opacity:1"
                 id="flowRegion901"><rect
                   style="fill:#dee4e8;fill-opacity:1"
                   y="60"
                   x="20"
                   height="156.33356"
                   width="192"
                   id="rect899" /></flowRegion><flowPara
                 style="font-size:32px;line-height:0;fill:#dee4e8;fill-opacity:1"
                 id="flowPara903">VALOR DA</flowPara><flowPara
                 id="flowPara941"
                 style="font-size:32px;line-height:0;fill:#dee4e8;fill-opacity:1">POSIÇÃO</flowPara></flowRoot>            <g
               id="flowRoot913"
               style="font-style:normal;font-weight:normal;font-size:40px;line-height:1.25;font-family:sans-serif;letter-spacing:0px;word-spacing:0px;fill:#000000;fill-opacity:1;stroke:none"
               transform="matrix(0.26458333,0,0,0.26458333,-6.6817382,183.38094)"
               aria-label="1*23">
              <path
                 id="path1014"
                 style="fill:#46b09c;fill-opacity:0.98823529"
                 d="m 204.96094,72.070312 h 6.44531 V 49.824219 l -7.01172,1.40625 v -3.59375 l 6.97266,-1.40625 h 3.94531 v 25.839843 h 6.44531 v 3.320313 h -16.79687 z"
                 inkscape:connector-curvature="0" />
              <path
                 id="path1016"
                 style="fill:#dee4e8;fill-opacity:1"
                 d="m 244.27734,51.035156 -7.01172,3.789063 7.01172,3.808593 -1.13281,1.914063 -6.5625,-3.964844 v 7.363281 h -2.22656 v -7.363281 l -6.5625,3.964844 -1.13281,-1.914063 7.01171,-3.808593 -7.01171,-3.789063 1.13281,-1.933594 6.5625,3.964844 v -7.363281 h 2.22656 v 7.363281 l 6.5625,-3.964844 z"
                 inkscape:connector-curvature="0" />
              <path
                 id="path1018"
                 style="fill:#dee4e8;fill-opacity:1"
                 d="m 253.14453,72.070312 h 13.76953 v 3.320313 h -18.51562 v -3.320313 q 2.24609,-2.324218 6.11328,-6.230468 3.88672,-3.925782 4.88281,-5.058594 1.89453,-2.128906 2.63672,-3.59375 0.76172,-1.484375 0.76172,-2.910156 0,-2.324219 -1.64063,-3.789063 -1.62109,-1.464844 -4.23828,-1.464844 -1.85547,0 -3.92578,0.644532 -2.05078,0.644531 -4.39453,1.953125 v -3.984375 q 2.38281,-0.957032 4.45312,-1.445313 2.07032,-0.488281 3.78907,-0.488281 4.53125,0 7.22656,2.265625 2.69531,2.265625 2.69531,6.054687 0,1.796875 -0.68359,3.417969 -0.66406,1.601563 -2.44141,3.789063 -0.48828,0.566406 -3.10547,3.28125 -2.61718,2.695312 -7.38281,7.558593 z"
                 inkscape:connector-curvature="0" />
              <path
                 id="path1020"
                 style="font-size:64.99999762%;baseline-shift:super;fill:#ba0b3d;fill-opacity:0.98431373"
                 d="m 281.4873,49.170898 q 1.84082,0.393555 2.86915,1.637696 1.04101,1.24414 1.04101,3.072265 0,2.805664 -1.92969,4.341797 -1.92968,1.536133 -5.48437,1.536133 -1.19336,0 -2.46289,-0.241211 -1.25684,-0.228516 -2.60254,-0.698242 V 56.34375 q 1.0664,0.62207 2.33594,0.939453 1.26953,0.317383 2.65332,0.317383 2.41211,0 3.66894,-0.952149 1.26953,-0.952148 1.26953,-2.767578 0,-1.675781 -1.18066,-2.615234 -1.16797,-0.952148 -3.2627,-0.952148 h -2.20898 v -2.107422 h 2.31055 q 1.8916,0 2.89453,-0.749024 1.00293,-0.761719 1.00293,-2.183594 0,-1.45996 -1.04102,-2.234375 -1.02832,-0.787109 -2.95801,-0.787109 -1.05371,0 -2.25976,0.228516 -1.20606,0.228515 -2.65332,0.710937 V 40.90625 q 1.45996,-0.40625 2.72949,-0.609375 1.28223,-0.203125 2.41211,-0.203125 2.91992,0 4.62109,1.333008 1.70117,1.320312 1.70117,3.580078 0,1.574219 -0.90136,2.666016 -0.90137,1.079101 -2.56446,1.498046 z"
                 inkscape:connector-curvature="0" />
            </g>
            <g
               id="flowRoot953"
               style="font-style:normal;font-weight:normal;font-size:40px;line-height:1.25;font-family:sans-serif;letter-spacing:0px;word-spacing:0px;fill:#000000;fill-opacity:1;stroke:none"
               transform="matrix(0.26458333,0,0,0.26458333,22.183371,183.38094)"
               aria-label="1*22">
              <path
                 id="path1005"
                 style="fill:#46b09c;fill-opacity:0.98823529"
                 d="m 204.96094,72.070312 h 6.44531 V 49.824219 l -7.01172,1.40625 v -3.59375 l 6.97266,-1.40625 h 3.94531 v 25.839843 h 6.44531 v 3.320313 h -16.79687 z"
                 inkscape:connector-curvature="0" />
              <path
                 id="path1007"
                 style="fill:#dee4e8;fill-opacity:1"
                 d="m 244.27734,51.035156 -7.01172,3.789063 7.01172,3.808593 -1.13281,1.914063 -6.5625,-3.964844 v 7.363281 h -2.22656 v -7.363281 l -6.5625,3.964844 -1.13281,-1.914063 7.01171,-3.808593 -7.01171,-3.789063 1.13281,-1.933594 6.5625,3.964844 v -7.363281 h 2.22656 v 7.363281 l 6.5625,-3.964844 z"
                 inkscape:connector-curvature="0" />
              <path
                 id="path1009"
                 style="fill:#dee4e8;fill-opacity:1"
                 d="m 253.14453,72.070312 h 13.76953 v 3.320313 h -18.51562 v -3.320313 q 2.24609,-2.324218 6.11328,-6.230468 3.88672,-3.925782 4.88281,-5.058594 1.89453,-2.128906 2.63672,-3.59375 0.76172,-1.484375 0.76172,-2.910156 0,-2.324219 -1.64063,-3.789063 -1.62109,-1.464844 -4.23828,-1.464844 -1.85547,0 -3.92578,0.644532 -2.05078,0.644531 -4.39453,1.953125 v -3.984375 q 2.38281,-0.957032 4.45312,-1.445313 2.07032,-0.488281 3.78907,-0.488281 4.53125,0 7.22656,2.265625 2.69531,2.265625 2.69531,6.054687 0,1.796875 -0.68359,3.417969 -0.66406,1.601563 -2.44141,3.789063 -0.48828,0.566406 -3.10547,3.28125 -2.61718,2.695312 -7.38281,7.558593 z"
                 inkscape:connector-curvature="0" />
              <path
                 id="path1011"
                 style="font-size:64.99999762%;baseline-shift:super;fill:#ba0b3d;fill-opacity:0.98431373"
                 d="m 275.92676,57.232422 h 8.95019 v 2.158203 H 272.8418 v -2.158203 q 1.45996,-1.510742 3.97363,-4.049805 2.52637,-2.551758 3.17383,-3.288086 1.23144,-1.383789 1.71386,-2.335937 0.49512,-0.964844 0.49512,-1.891602 0,-1.510742 -1.0664,-2.46289 -1.05372,-0.952149 -2.75489,-0.952149 -1.20605,0 -2.55175,0.418945 -1.33301,0.418946 -2.85645,1.269532 v -2.589844 q 1.54883,-0.62207 2.89453,-0.939453 1.3457,-0.317383 2.46289,-0.317383 2.94531,0 4.69727,1.472656 1.75195,1.472656 1.75195,3.935547 0,1.167969 -0.44434,2.22168 -0.43164,1.041015 -1.58691,2.46289 -0.31738,0.368164 -2.01855,2.132813 -1.70118,1.751953 -4.79883,4.913086 z"
                 inkscape:connector-curvature="0" />
            </g>
            <g
               id="flowRoot963"
               style="font-style:normal;font-weight:normal;font-size:40px;line-height:1.25;font-family:sans-serif;letter-spacing:0px;word-spacing:0px;fill:#000000;fill-opacity:1;stroke:none"
               transform="matrix(0.26458333,0,0,0.26458333,51.850289,183.38094)"
               aria-label="0*21">
              <path
                 id="path996"
                 style="fill:#46b09c;fill-opacity:0.98823529"
                 d="m 212.71484,48.828125 q -3.04687,0 -4.58984,3.007812 -1.52344,2.988282 -1.52344,9.003907 0,5.996093 1.52344,9.003906 1.54297,2.988281 4.58984,2.988281 3.06641,0 4.58985,-2.988281 1.54297,-3.007813 1.54297,-9.003906 0,-6.015625 -1.54297,-9.003907 -1.52344,-3.007812 -4.58985,-3.007812 z m 0,-3.125 q 4.90235,0 7.48047,3.886719 2.59766,3.867187 2.59766,11.25 0,7.363281 -2.59766,11.25 -2.57812,3.867187 -7.48047,3.867187 -4.90234,0 -7.5,-3.867187 -2.57812,-3.886719 -2.57812,-11.25 0,-7.382813 2.57812,-11.25 2.59766,-3.886719 7.5,-3.886719 z"
                 inkscape:connector-curvature="0" />
              <path
                 id="path998"
                 style="fill:#dee4e8;fill-opacity:1"
                 d="m 244.27734,51.035156 -7.01172,3.789063 7.01172,3.808593 -1.13281,1.914063 -6.5625,-3.964844 v 7.363281 h -2.22656 v -7.363281 l -6.5625,3.964844 -1.13281,-1.914063 7.01171,-3.808593 -7.01171,-3.789063 1.13281,-1.933594 6.5625,3.964844 v -7.363281 h 2.22656 v 7.363281 l 6.5625,-3.964844 z"
                 inkscape:connector-curvature="0" />
              <path
                 id="path1000"
                 style="fill:#dee4e8;fill-opacity:1"
                 d="m 253.14453,72.070312 h 13.76953 v 3.320313 h -18.51562 v -3.320313 q 2.24609,-2.324218 6.11328,-6.230468 3.88672,-3.925782 4.88281,-5.058594 1.89453,-2.128906 2.63672,-3.59375 0.76172,-1.484375 0.76172,-2.910156 0,-2.324219 -1.64063,-3.789063 -1.62109,-1.464844 -4.23828,-1.464844 -1.85547,0 -3.92578,0.644532 -2.05078,0.644531 -4.39453,1.953125 v -3.984375 q 2.38281,-0.957032 4.45312,-1.445313 2.07032,-0.488281 3.78907,-0.488281 4.53125,0 7.22656,2.265625 2.69531,2.265625 2.69531,6.054687 0,1.796875 -0.68359,3.417969 -0.66406,1.601563 -2.44141,3.789063 -0.48828,0.566406 -3.10547,3.28125 -2.61718,2.695312 -7.38281,7.558593 z"
                 inkscape:connector-curvature="0" />
              <path
                 id="path1002"
                 style="font-size:64.99999762%;baseline-shift:super;fill:#ba0b3d;fill-opacity:0.98431373"
                 d="m 274.16211,57.232422 h 4.18945 V 42.772461 l -4.55761,0.914062 v -2.335937 l 4.53222,-0.914063 h 2.56445 v 16.795899 h 4.18946 v 2.158203 h -10.91797 z"
                 inkscape:connector-curvature="0" />
            </g>
            <g
               id="flowRoot973"
               style="font-style:normal;font-weight:normal;font-size:40px;line-height:1.25;font-family:sans-serif;letter-spacing:0px;word-spacing:0px;fill:#000000;fill-opacity:1;stroke:none"
               transform="matrix(0.26458333,0,0,0.26458333,81.249937,183.38094)"
               aria-label="0*20">
              <path
                 id="path987"
                 style="fill:#46b09c;fill-opacity:0.98823529"
                 d="m 212.71484,48.828125 q -3.04687,0 -4.58984,3.007812 -1.52344,2.988282 -1.52344,9.003907 0,5.996093 1.52344,9.003906 1.54297,2.988281 4.58984,2.988281 3.06641,0 4.58985,-2.988281 1.54297,-3.007813 1.54297,-9.003906 0,-6.015625 -1.54297,-9.003907 -1.52344,-3.007812 -4.58985,-3.007812 z m 0,-3.125 q 4.90235,0 7.48047,3.886719 2.59766,3.867187 2.59766,11.25 0,7.363281 -2.59766,11.25 -2.57812,3.867187 -7.48047,3.867187 -4.90234,0 -7.5,-3.867187 -2.57812,-3.886719 -2.57812,-11.25 0,-7.382813 2.57812,-11.25 2.59766,-3.886719 7.5,-3.886719 z"
                 inkscape:connector-curvature="0" />
              <path
                 id="path989"
                 style="fill:#dee4e8;fill-opacity:1"
                 d="m 244.27734,51.035156 -7.01172,3.789063 7.01172,3.808593 -1.13281,1.914063 -6.5625,-3.964844 v 7.363281 h -2.22656 v -7.363281 l -6.5625,3.964844 -1.13281,-1.914063 7.01171,-3.808593 -7.01171,-3.789063 1.13281,-1.933594 6.5625,3.964844 v -7.363281 h 2.22656 v 7.363281 l 6.5625,-3.964844 z"
                 inkscape:connector-curvature="0" />
              <path
                 id="path991"
                 style="fill:#dee4e8;fill-opacity:1"
                 d="m 253.14453,72.070312 h 13.76953 v 3.320313 h -18.51562 v -3.320313 q 2.24609,-2.324218 6.11328,-6.230468 3.88672,-3.925782 4.88281,-5.058594 1.89453,-2.128906 2.63672,-3.59375 0.76172,-1.484375 0.76172,-2.910156 0,-2.324219 -1.64063,-3.789063 -1.62109,-1.464844 -4.23828,-1.464844 -1.85547,0 -3.92578,0.644532 -2.05078,0.644531 -4.39453,1.953125 v -3.984375 q 2.38281,-0.957032 4.45312,-1.445313 2.07032,-0.488281 3.78907,-0.488281 4.53125,0 7.22656,2.265625 2.69531,2.265625 2.69531,6.054687 0,1.796875 -0.68359,3.417969 -0.66406,1.601563 -2.44141,3.789063 -0.48828,0.566406 -3.10547,3.28125 -2.61718,2.695312 -7.38281,7.558593 z"
                 inkscape:connector-curvature="0" />
              <path
                 id="path993"
                 style="font-size:64.99999762%;baseline-shift:super;fill:#ba0b3d;fill-opacity:0.98431373"
                 d="m 279.20215,42.125 q -1.98047,0 -2.9834,1.955078 -0.99023,1.942383 -0.99023,5.852539 0,3.897461 0.99023,5.852539 1.00293,1.942383 2.9834,1.942383 1.99316,0 2.9834,-1.942383 1.00293,-1.955078 1.00293,-5.852539 0,-3.910156 -1.00293,-5.852539 Q 281.19531,42.125 279.20215,42.125 Z m 0,-2.03125 q 3.18652,0 4.8623,2.526367 1.68848,2.513672 1.68848,7.3125 0,4.786133 -1.68848,7.3125 -1.67578,2.513672 -4.8623,2.513672 -3.18653,0 -4.875,-2.513672 -1.67578,-2.526367 -1.67578,-7.3125 0,-4.798828 1.67578,-7.3125 1.68847,-2.526367 4.875,-2.526367 z"
                 inkscape:connector-curvature="0" />
            </g>
            <rect
               y="164.70831"
               x="2.6458333"
               height="2.6458333"
               width="153.45833"
               id="rect983"
               style="opacity:1;fill:#dee4e8;fill-opacity:1;stroke:none;stroke-width:1.33447075;stroke-linecap:round;stroke-linejoin:miter;stroke-miterlimit:4;stroke-dasharray:none;stroke-opacity:1;paint-order:fill markers stroke" />
            <rect
               style="opacity:1;fill:#dee4e8;fill-opacity:1;stroke:none;stroke-width:1.33447075;stroke-linecap:round;stroke-linejoin:miter;stroke-miterlimit:4;stroke-dasharray:none;stroke-opacity:1;paint-order:fill markers stroke"
               id="rect985"
               width="153.45833"
               height="2.6458333"
               x="2.6458333"
               y="184.28748" />
            <flowRoot
               transform="matrix(0.20340992,0,0,0.26458333,-1.7594092,201.74099)"
               style="font-style:normal;font-weight:normal;font-size:40px;line-height:1.25;font-family:sans-serif;letter-spacing:0px;word-spacing:0px;fill:#4f7fa2;fill-opacity:0.98113224;stroke:none"
               id="flowRoot1029"
               xml:space="preserve"><flowRegion
                 id="flowRegion1025"
                 style="fill:#4f7fa2;fill-opacity:0.98113224"><rect
                   y="60"
                   x="20"
                   height="88.033966"
                   width="202"
                   id="rect1023"
                   style="fill:#4f7fa2;fill-opacity:0.98113224" /></flowRegion><flowPara
                 style="font-size:32px;fill:#4f7fa2;fill-opacity:0.98113224"
                 id="flowPara1027">RESULTADO</flowPara></flowRoot>            <flowRoot
               transform="matrix(0.26458333,0,0,0.26458333,-0.53453906,208.02615)"
               style="font-style:normal;font-weight:normal;font-size:40px;line-height:1.25;font-family:sans-serif;letter-spacing:0px;word-spacing:0px;fill:#4f7fa2;fill-opacity:0.98113224;stroke:none"
               id="flowRoot1037"
               xml:space="preserve"><flowRegion
                 id="flowRegion1033"
                 style="fill:#4f7fa2;fill-opacity:0.98113224"><rect
                   y="40"
                   x="200"
                   height="60"
                   width="60"
                   id="rect1031"
                   style="fill:#4f7fa2;fill-opacity:0.98113224" /></flowRegion><flowPara
                 id="flowPara1035">8</flowPara></flowRoot>            <flowRoot
               xml:space="preserve"
               id="flowRoot1045"
               style="font-style:normal;font-weight:normal;font-size:40px;line-height:1.25;font-family:sans-serif;letter-spacing:0px;word-spacing:0px;fill:#4f7fa2;fill-opacity:0.98113224;stroke:none"
               transform="matrix(0.26458333,0,0,0.26458333,28.597841,208.03131)"><flowRegion
                 id="flowRegion1041"
                 style="fill:#4f7fa2;fill-opacity:0.98113224"><rect
                   id="rect1039"
                   width="60"
                   height="60"
                   x="200"
                   y="40"
                   style="fill:#4f7fa2;fill-opacity:0.98113224" /></flowRegion><flowPara
                 id="flowPara1043">4</flowPara></flowRoot>            <flowRoot
               transform="matrix(0.26458333,0,0,0.26458333,57.46295,208.02615)"
               style="font-style:normal;font-weight:normal;font-size:40px;line-height:1.25;font-family:sans-serif;letter-spacing:0px;word-spacing:0px;fill:#4f7fa2;fill-opacity:0.98113224;stroke:none"
               id="flowRoot1053"
               xml:space="preserve"><flowRegion
                 id="flowRegion1049"
                 style="fill:#4f7fa2;fill-opacity:0.98113224"><rect
                   y="40"
                   x="200"
                   height="60"
                   width="60"
                   id="rect1047"
                   style="fill:#4f7fa2;fill-opacity:0.98113224" /></flowRegion><flowPara
                 id="flowPara1051">0</flowPara></flowRoot>            <flowRoot
               xml:space="preserve"
               id="flowRoot1061"
               style="font-style:normal;font-weight:normal;font-size:40px;line-height:1.25;font-family:sans-serif;letter-spacing:0px;word-spacing:0px;fill:#4f7fa2;fill-opacity:0.98113224;stroke:none"
               transform="matrix(0.26458333,0,0,0.26458333,87.129867,208.02615)"><flowRegion
                 id="flowRegion1057"
                 style="fill:#4f7fa2;fill-opacity:0.98113224"><rect
                   id="rect1055"
                   width="60"
                   height="60"
                   x="200"
                   y="40"
                   style="fill:#4f7fa2;fill-opacity:0.98113224" /></flowRegion><flowPara
                 id="flowPara1059">0</flowPara></flowRoot>            <rect
               style="opacity:1;fill:#dee4e8;fill-opacity:1;stroke:none;stroke-width:1.33447075;stroke-linecap:round;stroke-linejoin:miter;stroke-miterlimit:4;stroke-dasharray:none;stroke-opacity:1;paint-order:fill markers stroke"
               id="rect1063"
               width="153.45833"
               height="2.6458333"
               x="2.6458333"
               y="212.86247" />
            <g
               style="fill:#4f7fa2;fill-opacity:0.98113224"
               transform="matrix(0.49999999,0,0,0.49999999,35.189585,111.33953)"
               id="g1071">
              <rect
                 style="opacity:1;fill:#4f7fa2;fill-opacity:0.98113224;stroke:none;stroke-width:1.32291663;stroke-linecap:round;stroke-linejoin:miter;stroke-miterlimit:4;stroke-dasharray:none;stroke-opacity:1;paint-order:fill markers stroke"
                 id="rect1065"
                 width="2.6458333"
                 height="10.583333"
                 x="68.791664"
                 y="220.27081" />
              <rect
                 y="-75.40625"
                 x="224.23956"
                 height="10.583333"
                 width="2.6458333"
                 id="rect1067"
                 style="opacity:1;fill:#4f7fa2;fill-opacity:0.98113224;stroke:none;stroke-width:1.32291663;stroke-linecap:round;stroke-linejoin:miter;stroke-miterlimit:4;stroke-dasharray:none;stroke-opacity:1;paint-order:fill markers stroke"
                 transform="rotate(90)" />
            </g>
            <g
               style="fill:#4f7fa2;fill-opacity:0.98113224"
               transform="matrix(0.49999999,0,0,0.49999999,92.339585,111.33953)"
               id="g1083">
              <rect
                 style="opacity:1;fill:#4f7fa2;fill-opacity:0.98113224;stroke:none;stroke-width:1.32291663;stroke-linecap:round;stroke-linejoin:miter;stroke-miterlimit:4;stroke-dasharray:none;stroke-opacity:1;paint-order:fill markers stroke"
                 id="rect1079"
                 width="2.6458333"
                 height="10.583333"
                 x="68.791664"
                 y="220.27081" />
              <rect
                 y="-75.40625"
                 x="224.23956"
                 height="10.583333"
                 width="2.6458333"
                 id="rect1081"
                 style="opacity:1;fill:#4f7fa2;fill-opacity:0.98113224;stroke:none;stroke-width:1.32291663;stroke-linecap:round;stroke-linejoin:miter;stroke-miterlimit:4;stroke-dasharray:none;stroke-opacity:1;paint-order:fill markers stroke"
                 transform="rotate(90)" />
            </g>
            <g
               style="fill:#4f7fa2;fill-opacity:0.98113224"
               id="g1089"
               transform="matrix(0.49999999,0,0,0.49999999,64.029169,111.33954)">
              <rect
                 y="220.27081"
                 x="68.791664"
                 height="10.583333"
                 width="2.6458333"
                 id="rect1085"
                 style="opacity:1;fill:#4f7fa2;fill-opacity:0.98113224;stroke:none;stroke-width:1.32291663;stroke-linecap:round;stroke-linejoin:miter;stroke-miterlimit:4;stroke-dasharray:none;stroke-opacity:1;paint-order:fill markers stroke" />
              <rect
                 transform="rotate(90)"
                 style="opacity:1;fill:#4f7fa2;fill-opacity:0.98113224;stroke:none;stroke-width:1.32291663;stroke-linecap:round;stroke-linejoin:miter;stroke-miterlimit:4;stroke-dasharray:none;stroke-opacity:1;paint-order:fill markers stroke"
                 id="rect1087"
                 width="2.6458333"
                 height="10.583333"
                 x="224.23956"
                 y="-75.40625" />
            </g>
            <rect
               transform="rotate(90)"
               style="opacity:1;fill:#dee4e8;fill-opacity:1;stroke:none;stroke-width:0.97560924;stroke-linecap:round;stroke-linejoin:miter;stroke-miterlimit:4;stroke-dasharray:none;stroke-opacity:1;paint-order:fill markers stroke"
               id="rect1091"
               width="82.020821"
               height="2.6458333"
               x="148.83331"
               y="-44.979168" />
          </g>
          <g
             id="g1242"
             transform="matrix(1.1468145,0,0,1.1468145,-9.3574736,-12.605349)">
            <path
               id="path1215"
               style="fill:#46b09c;fill-opacity:0.98823529;stroke-width:0.26458332"
               d="m 35.768212,152.3702 q 0,-1.04903 -0.434082,-1.64331 -0.428915,-0.59945 -1.18339,-0.59945 -0.754476,0 -1.188558,0.59945 -0.428915,0.59428 -0.428915,1.64331 0,1.04903 0.428915,1.64848 0.434082,0.59428 1.188558,0.59428 0.754475,0 1.18339,-0.59428 0.434082,-0.59945 0.434082,-1.64848 z m -3.234945,-2.02055 q 0.299724,-0.51676 0.754476,-0.76481 0.45992,-0.25322 1.095541,-0.25322 1.054199,0 1.710489,0.83716 0.661459,0.83716 0.661459,2.20142 0,1.36426 -0.661459,2.20141 -0.65629,0.83716 -1.710489,0.83716 -0.635621,0 -1.095541,-0.24804 -0.454752,-0.25322 -0.754476,-0.76998 v 0.86816 h -0.956014 v -8.04085 h 0.956014 z"
               inkscape:connector-curvature="0" />
            <path
               id="path1217"
               style="fill:#dee4e8;fill-opacity:1;stroke-width:0.26458332"
               d="m 42.310448,148.81486 -1.855184,1.00252 1.855184,1.00769 -0.299723,0.50643 -1.736328,-1.04903 v 1.9482 h -0.589112 v -1.9482 l -1.736328,1.04903 -0.299723,-0.50643 1.855184,-1.00769 -1.855184,-1.00252 0.299723,-0.5116 1.736328,1.04904 v -1.94821 h 0.589112 v 1.94821 l 1.736328,-1.04904 z"
               inkscape:connector-curvature="0" />
            <path
               id="path1219"
               style="fill:#dee4e8;fill-opacity:1;stroke-width:0.26458332"
               d="m 44.656558,154.38041 h 3.643188 v 0.8785 h -4.898925 v -0.8785 q 0.594279,-0.61495 1.617472,-1.64848 1.028361,-1.03869 1.291911,-1.33842 0.501261,-0.56327 0.697632,-0.95084 0.201538,-0.39274 0.201538,-0.76998 0,-0.61495 -0.434082,-1.00252 -0.428915,-0.38758 -1.121379,-0.38758 -0.490926,0 -1.038696,0.17054 -0.542603,0.17053 -1.16272,0.51676 v -1.0542 q 0.630453,-0.25321 1.178223,-0.38241 0.54777,-0.12919 1.002523,-0.12919 1.198893,0 1.912027,0.59945 0.713135,0.59945 0.713135,1.60197 0,0.47542 -0.180867,0.90434 -0.1757,0.42374 -0.645956,1.00252 -0.129191,0.14986 -0.821655,0.86816 -0.692464,0.71314 -1.953369,1.99988 z"
               inkscape:connector-curvature="0" />
            <path
               id="path1221"
               style="font-size:64.99999762%;baseline-shift:super;fill:#ba0b3d;fill-opacity:0.98431373"
               d="m 50.610458,150.46127 v 1.99523 h -0.621409 v -5.19297 h 0.621409 v 0.57103 q 0.19482,-0.3359 0.490409,-0.49713 0.298948,-0.16459 0.712101,-0.16459 0.68523,0 1.111819,0.54415 0.429947,0.54416 0.429947,1.43093 0,0.88676 -0.429947,1.43092 -0.426589,0.54415 -1.111819,0.54415 -0.413153,0 -0.712101,-0.16123 -0.295589,-0.16459 -0.490409,-0.50049 z m 2.102714,-1.31335 q 0,-0.68188 -0.282154,-1.06816 -0.278794,-0.38964 -0.769203,-0.38964 -0.49041,0 -0.772563,0.38964 -0.278794,0.38628 -0.278794,1.06816 0,0.68187 0.278794,1.07151 0.282153,0.38628 0.772563,0.38628 0.490409,0 0.769203,-0.38628 0.282154,-0.38964 0.282154,-1.07151 z"
               inkscape:connector-curvature="0" />
          </g>
          <rect
             style="opacity:1;fill:#dee4e8;fill-opacity:1;stroke:none;stroke-width:1.32291663;stroke-linecap:round;stroke-linejoin:miter;stroke-miterlimit:4;stroke-dasharray:none;stroke-opacity:1;paint-order:fill markers stroke"
             id="rect1224"
             width="5.2916665"
             height="2.6458333"
             x="5.2916665"
             y="222.91664" />
          <rect
             style="opacity:1;fill:#dee4e8;fill-opacity:1;stroke:none;stroke-width:1.26787579;stroke-linecap:round;stroke-linejoin:miter;stroke-miterlimit:4;stroke-dasharray:none;stroke-opacity:1;paint-order:fill markers stroke"
             id="rect1226"
             width="2.6458333"
             height="65.616737"
             x="5.2916665"
             y="159.94574" />
          <rect
             style="opacity:1;fill:#dee4e8;fill-opacity:1;stroke:none;stroke-width:1.32291663;stroke-linecap:round;stroke-linejoin:miter;stroke-miterlimit:4;stroke-dasharray:none;stroke-opacity:1;paint-order:fill markers stroke"
             id="rect1228"
             width="15.875"
             height="2.6458333"
             x="5.2916665"
             y="159.94574" />
          <g
             id="g1236"
             transform="rotate(45,-13.825773,189.78596)"
             style="fill:#dee4e8;fill-opacity:1">
            <rect
               y="143.54164"
               x="-15.875"
               height="2.6458333"
               width="7.9375"
               id="rect1230"
               style="opacity:1;fill:#dee4e8;fill-opacity:1;stroke:none;stroke-width:1.32291663;stroke-linecap:round;stroke-linejoin:miter;stroke-miterlimit:4;stroke-dasharray:none;stroke-opacity:1;paint-order:fill markers stroke" />
            <rect
               y="143.54164"
               x="-10.583333"
               height="7.9375"
               width="2.6458333"
               id="rect1232"
               style="opacity:1;fill:#dee4e8;fill-opacity:1;stroke:none;stroke-width:1.32291663;stroke-linecap:round;stroke-linejoin:miter;stroke-miterlimit:4;stroke-dasharray:none;stroke-opacity:1;paint-order:fill markers stroke" />
          </g>
        </g>
        <flowRoot
           xml:space="preserve"
           id="flowRoot1166"
           style="font-style:normal;font-weight:normal;font-size:40px;line-height:1.25;font-family:sans-serif;letter-spacing:0px;word-spacing:0px;fill:#dee4e8;fill-opacity:1;stroke:none"
           transform="matrix(0.26458333,0,0,0.26458333,9.8544366,141.68284)"><flowRegion
             id="flowRegion1168"
             style="fill:#dee4e8;fill-opacity:1"><rect
               id="rect1170"
               width="360"
               height="85.714287"
               x="104.28571"
               y="487.14285"
               style="fill:#dee4e8;fill-opacity:1" /></flowRegion><flowPara
             id="flowPara1172"
             style="font-size:48px">1100<flowSpan
   id="flowSpan2052"
   style="font-size:64.99999762%;baseline-shift:sub">2</flowSpan> = 12<flowSpan
   id="flowSpan2050"
   style="font-size:64.99999762%;baseline-shift:sub">10</flowSpan></flowPara></flowRoot>      </g>
    </g>
  </g>
</svg>
